<mxfile host="app.diagrams.net" modified="2024-01-04T19:21:08.745Z" agent="Mozilla/5.0 (Windows NT 10.0; Win64; x64) AppleWebKit/537.36 (KHTML, like Gecko) Chrome/119.0.0.0 Safari/537.36 OPR/105.0.0.0" etag="LVaSX3niL99bJdol7sHi" version="22.1.16" type="github">
  <diagram name="Página-1" id="cAdCbIKFTUZtztD2IjbC">
    <mxGraphModel dx="1805" dy="3266" grid="1" gridSize="10" guides="1" tooltips="1" connect="0" arrows="1" fold="1" page="1" pageScale="1" pageWidth="1169" pageHeight="827" math="0" shadow="0">
      <root>
        <mxCell id="0" />
        <mxCell id="1" parent="0" />
        <mxCell id="0KVhF8V3gHxktLooKfaU-1" value="" style="fontColor=#0066CC;verticalAlign=top;verticalLabelPosition=bottom;labelPosition=center;align=center;html=1;outlineConnect=0;fillColor=#CCCCCC;strokeColor=#6881B3;gradientColor=none;gradientDirection=north;strokeWidth=2;shape=mxgraph.networks.mobile;" parent="1" vertex="1">
          <mxGeometry x="125" y="-925" width="150" height="290" as="geometry" />
        </mxCell>
        <mxCell id="VMad6JrgPlULfduizpKx-3" value="" style="rounded=0;whiteSpace=wrap;html=1;" parent="1" vertex="1">
          <mxGeometry x="140" y="-810" width="120" height="20" as="geometry" />
        </mxCell>
        <mxCell id="VMad6JrgPlULfduizpKx-5" value="" style="rounded=0;whiteSpace=wrap;html=1;" parent="1" vertex="1">
          <mxGeometry x="140" y="-770" width="120" height="20" as="geometry" />
        </mxCell>
        <mxCell id="VMad6JrgPlULfduizpKx-17" value="Registar" style="text;html=1;strokeColor=none;fillColor=none;align=center;verticalAlign=middle;whiteSpace=wrap;rounded=0;" parent="1" vertex="1">
          <mxGeometry x="170" y="-767.5" width="60" height="15" as="geometry" />
        </mxCell>
        <mxCell id="VMad6JrgPlULfduizpKx-16" value="Login" style="text;html=1;strokeColor=none;fillColor=none;align=center;verticalAlign=middle;whiteSpace=wrap;rounded=0;" parent="1" vertex="1">
          <mxGeometry x="168.75" y="-810" width="60" height="15" as="geometry" />
        </mxCell>
        <mxCell id="0KVhF8V3gHxktLooKfaU-6" value="" style="fontColor=#0066CC;verticalAlign=top;verticalLabelPosition=bottom;labelPosition=center;align=center;html=1;outlineConnect=0;fillColor=#CCCCCC;strokeColor=#6881B3;gradientColor=none;gradientDirection=north;strokeWidth=2;shape=mxgraph.networks.mobile;" parent="1" vertex="1">
          <mxGeometry x="470" y="-947.5" width="150" height="290" as="geometry" />
        </mxCell>
        <mxCell id="0KVhF8V3gHxktLooKfaU-8" value="" style="fontColor=#0066CC;verticalAlign=top;verticalLabelPosition=bottom;labelPosition=center;align=center;html=1;outlineConnect=0;fillColor=#CCCCCC;strokeColor=#6881B3;gradientColor=none;gradientDirection=north;strokeWidth=2;shape=mxgraph.networks.mobile;" parent="1" vertex="1">
          <mxGeometry x="125" y="-245" width="150" height="290" as="geometry" />
        </mxCell>
        <mxCell id="VMad6JrgPlULfduizpKx-15" value="" style="rounded=0;whiteSpace=wrap;html=1;" parent="1" vertex="1">
          <mxGeometry x="482.5" y="-825" width="120" height="20" as="geometry" />
        </mxCell>
        <mxCell id="VMad6JrgPlULfduizpKx-19" value="Palavra-Passe" style="text;html=1;strokeColor=none;fillColor=none;align=center;verticalAlign=middle;whiteSpace=wrap;rounded=0;" parent="1" vertex="1">
          <mxGeometry x="491.25" y="-822.5" width="107.5" height="10" as="geometry" />
        </mxCell>
        <mxCell id="VMad6JrgPlULfduizpKx-14" value="" style="rounded=0;whiteSpace=wrap;html=1;" parent="1" vertex="1">
          <mxGeometry x="482.5" y="-860" width="120" height="20" as="geometry" />
        </mxCell>
        <mxCell id="VMad6JrgPlULfduizpKx-18" value="Email" style="text;html=1;strokeColor=none;fillColor=none;align=center;verticalAlign=middle;whiteSpace=wrap;rounded=0;" parent="1" vertex="1">
          <mxGeometry x="513.75" y="-855" width="56.25" height="5" as="geometry" />
        </mxCell>
        <mxCell id="0KVhF8V3gHxktLooKfaU-7" value="" style="fontColor=#0066CC;verticalAlign=top;verticalLabelPosition=bottom;labelPosition=center;align=center;html=1;outlineConnect=0;fillColor=#CCCCCC;strokeColor=#6881B3;gradientColor=none;gradientDirection=north;strokeWidth=2;shape=mxgraph.networks.mobile;" parent="1" vertex="1">
          <mxGeometry x="125" y="-580" width="150" height="290" as="geometry" />
        </mxCell>
        <mxCell id="VMad6JrgPlULfduizpKx-12" value="" style="rounded=0;whiteSpace=wrap;html=1;" parent="1" vertex="1">
          <mxGeometry x="140" y="-470" width="120" height="20" as="geometry" />
        </mxCell>
        <mxCell id="VMad6JrgPlULfduizpKx-10" value="" style="rounded=0;whiteSpace=wrap;html=1;" parent="1" vertex="1">
          <mxGeometry x="140" y="-500" width="120" height="20" as="geometry" />
        </mxCell>
        <mxCell id="VMad6JrgPlULfduizpKx-25" value="" style="rounded=0;whiteSpace=wrap;html=1;" parent="1" vertex="1">
          <mxGeometry x="133.13" y="-395" width="130" height="25" as="geometry" />
        </mxCell>
        <mxCell id="VMad6JrgPlULfduizpKx-27" value="Repetir Palavra-Passe" style="text;html=1;strokeColor=none;fillColor=none;align=center;verticalAlign=middle;whiteSpace=wrap;rounded=0;" parent="1" vertex="1">
          <mxGeometry x="132.5" y="-390" width="132.5" height="15" as="geometry" />
        </mxCell>
        <mxCell id="VMad6JrgPlULfduizpKx-20" value="Nome" style="text;html=1;strokeColor=none;fillColor=none;align=center;verticalAlign=middle;whiteSpace=wrap;rounded=0;" parent="1" vertex="1">
          <mxGeometry x="165" y="-495" width="67.5" height="10" as="geometry" />
        </mxCell>
        <mxCell id="VMad6JrgPlULfduizpKx-22" value="E-mail" style="text;html=1;strokeColor=none;fillColor=none;align=center;verticalAlign=middle;whiteSpace=wrap;rounded=0;" parent="1" vertex="1">
          <mxGeometry x="170" y="-465" width="60" height="10" as="geometry" />
        </mxCell>
        <mxCell id="0KVhF8V3gHxktLooKfaU-18" value="" style="rounded=0;whiteSpace=wrap;html=1;" parent="1" vertex="1">
          <mxGeometry x="140" y="-430" width="120" height="20" as="geometry" />
        </mxCell>
        <mxCell id="VMad6JrgPlULfduizpKx-23" value="Palavra-Passe" style="text;html=1;strokeColor=none;fillColor=none;align=center;verticalAlign=middle;whiteSpace=wrap;rounded=0;" parent="1" vertex="1">
          <mxGeometry x="153.75" y="-425" width="95" height="10" as="geometry" />
        </mxCell>
        <mxCell id="0KVhF8V3gHxktLooKfaU-20" value="" style="rounded=0;whiteSpace=wrap;html=1;" parent="1" vertex="1">
          <mxGeometry x="140" y="-185" width="120" height="20" as="geometry" />
        </mxCell>
        <mxCell id="0KVhF8V3gHxktLooKfaU-21" value="Universidade" style="text;html=1;strokeColor=none;fillColor=none;align=center;verticalAlign=middle;whiteSpace=wrap;rounded=0;" parent="1" vertex="1">
          <mxGeometry x="166.25" y="-182.5" width="63.75" height="15" as="geometry" />
        </mxCell>
        <mxCell id="0KVhF8V3gHxktLooKfaU-23" value="" style="rounded=0;whiteSpace=wrap;html=1;" parent="1" vertex="1">
          <mxGeometry x="140" y="-145" width="120" height="20" as="geometry" />
        </mxCell>
        <mxCell id="Im8DkBv-oJB0yEAL4bMb-1" value="" style="endArrow=classic;html=1;rounded=0;" parent="1" source="0KVhF8V3gHxktLooKfaU-8" target="PIecZ1-pUtgp4aDP-7Yr-34" edge="1">
          <mxGeometry width="50" height="50" relative="1" as="geometry">
            <mxPoint x="965" y="560" as="sourcePoint" />
            <mxPoint x="285" y="430" as="targetPoint" />
          </mxGeometry>
        </mxCell>
        <mxCell id="Im8DkBv-oJB0yEAL4bMb-4" value="Caso escolher a opção de registro" style="text;html=1;strokeColor=#6c8ebf;fillColor=#dae8fc;align=center;verticalAlign=middle;whiteSpace=wrap;rounded=0;" parent="1" vertex="1">
          <mxGeometry x="260" y="-640" width="75" height="60" as="geometry" />
        </mxCell>
        <mxCell id="Im8DkBv-oJB0yEAL4bMb-5" value="Caso escolher a opção de login" style="text;html=1;strokeColor=#6c8ebf;fillColor=#dae8fc;align=center;verticalAlign=middle;whiteSpace=wrap;rounded=0;" parent="1" vertex="1">
          <mxGeometry x="350" y="-790" width="70" height="55" as="geometry" />
        </mxCell>
        <mxCell id="Im8DkBv-oJB0yEAL4bMb-8" value="" style="endArrow=classic;html=1;rounded=0;" parent="1" source="0KVhF8V3gHxktLooKfaU-6" target="PIecZ1-pUtgp4aDP-7Yr-34" edge="1">
          <mxGeometry width="50" height="50" relative="1" as="geometry">
            <mxPoint x="280" y="110" as="sourcePoint" />
            <mxPoint x="985" y="-40" as="targetPoint" />
          </mxGeometry>
        </mxCell>
        <mxCell id="Im8DkBv-oJB0yEAL4bMb-9" value="Proximo" style="rounded=1;whiteSpace=wrap;html=1;" parent="1" vertex="1">
          <mxGeometry x="507.5" y="-710" width="100" height="20" as="geometry" />
        </mxCell>
        <mxCell id="Im8DkBv-oJB0yEAL4bMb-14" value="Bem Vindo ao Lazuli" style="text;html=1;strokeColor=none;fillColor=none;align=center;verticalAlign=middle;whiteSpace=wrap;rounded=0;" parent="1" vertex="1">
          <mxGeometry x="140" y="-875" width="120" height="30" as="geometry" />
        </mxCell>
        <mxCell id="zmDIpyJvA4lZAGfdypss-1" value="Proximo" style="rounded=1;whiteSpace=wrap;html=1;" parent="1" vertex="1">
          <mxGeometry x="170" y="-350" width="100" height="20" as="geometry" />
        </mxCell>
        <mxCell id="zmDIpyJvA4lZAGfdypss-3" value="Proximo" style="rounded=1;whiteSpace=wrap;html=1;" parent="1" vertex="1">
          <mxGeometry x="160" y="-5" width="100" height="20" as="geometry" />
        </mxCell>
        <mxCell id="PIecZ1-pUtgp4aDP-7Yr-6" value="" style="endArrow=classic;html=1;rounded=0;" parent="1" source="0KVhF8V3gHxktLooKfaU-7" target="0KVhF8V3gHxktLooKfaU-8" edge="1">
          <mxGeometry width="50" height="50" relative="1" as="geometry">
            <mxPoint x="275" y="-160" as="sourcePoint" />
            <mxPoint x="825" y="-300" as="targetPoint" />
          </mxGeometry>
        </mxCell>
        <mxCell id="PIecZ1-pUtgp4aDP-7Yr-7" value="" style="endArrow=classic;html=1;rounded=0;exitX=0.995;exitY=0.395;exitDx=0;exitDy=0;exitPerimeter=0;" parent="1" source="VMad6JrgPlULfduizpKx-3" target="0KVhF8V3gHxktLooKfaU-6" edge="1">
          <mxGeometry width="50" height="50" relative="1" as="geometry">
            <mxPoint x="620" y="-550" as="sourcePoint" />
            <mxPoint x="490" y="-690" as="targetPoint" />
            <Array as="points" />
          </mxGeometry>
        </mxCell>
        <mxCell id="PIecZ1-pUtgp4aDP-7Yr-8" value="" style="endArrow=classic;html=1;rounded=0;" parent="1" source="VMad6JrgPlULfduizpKx-17" target="0KVhF8V3gHxktLooKfaU-7" edge="1">
          <mxGeometry width="50" height="50" relative="1" as="geometry">
            <mxPoint x="290" y="-520" as="sourcePoint" />
            <mxPoint x="120" y="-670" as="targetPoint" />
            <Array as="points" />
          </mxGeometry>
        </mxCell>
        <mxCell id="PIecZ1-pUtgp4aDP-7Yr-16" value="Semestre" style="rounded=0;whiteSpace=wrap;html=1;" parent="1" vertex="1">
          <mxGeometry x="140" y="-110" width="120" height="20" as="geometry" />
        </mxCell>
        <mxCell id="PIecZ1-pUtgp4aDP-7Yr-17" value="" style="rounded=0;whiteSpace=wrap;html=1;" parent="1" vertex="1">
          <mxGeometry x="141.25" y="-75" width="120" height="20" as="geometry" />
        </mxCell>
        <mxCell id="PIecZ1-pUtgp4aDP-7Yr-19" value="Curso" style="text;html=1;strokeColor=none;fillColor=none;align=center;verticalAlign=middle;whiteSpace=wrap;rounded=0;" parent="1" vertex="1">
          <mxGeometry x="170" y="-140" width="60" height="10" as="geometry" />
        </mxCell>
        <mxCell id="PIecZ1-pUtgp4aDP-7Yr-22" value="Turma" style="text;html=1;strokeColor=none;fillColor=none;align=center;verticalAlign=middle;whiteSpace=wrap;rounded=0;" parent="1" vertex="1">
          <mxGeometry x="168.13" y="-70" width="60" height="10" as="geometry" />
        </mxCell>
        <mxCell id="PIecZ1-pUtgp4aDP-7Yr-34" value="" style="fontColor=#0066CC;verticalAlign=top;verticalLabelPosition=bottom;labelPosition=center;align=center;html=1;outlineConnect=0;fillColor=#CCCCCC;strokeColor=#6881B3;gradientColor=none;gradientDirection=north;strokeWidth=2;shape=mxgraph.networks.mobile;" parent="1" vertex="1">
          <mxGeometry x="470" y="-545" width="150" height="290" as="geometry" />
        </mxCell>
        <mxCell id="PIecZ1-pUtgp4aDP-7Yr-35" value="Agenda" style="rounded=1;whiteSpace=wrap;html=1;" parent="1" vertex="1">
          <mxGeometry x="485.17" y="-435" width="120" height="20" as="geometry" />
        </mxCell>
        <mxCell id="PIecZ1-pUtgp4aDP-7Yr-36" value="Horário" style="rounded=1;whiteSpace=wrap;html=1;" parent="1" vertex="1">
          <mxGeometry x="485" y="-370" width="120" height="20" as="geometry" />
        </mxCell>
        <mxCell id="PIecZ1-pUtgp4aDP-7Yr-37" value="UCs" style="rounded=1;whiteSpace=wrap;html=1;" parent="1" vertex="1">
          <mxGeometry x="485" y="-400" width="120" height="20" as="geometry" />
        </mxCell>
        <mxCell id="PIecZ1-pUtgp4aDP-7Yr-38" value="Eventos" style="rounded=1;whiteSpace=wrap;html=1;" parent="1" vertex="1">
          <mxGeometry x="722.67" y="-435" width="120" height="20" as="geometry" />
        </mxCell>
        <mxCell id="PIecZ1-pUtgp4aDP-7Yr-39" value="Notas" style="rounded=1;whiteSpace=wrap;html=1;" parent="1" vertex="1">
          <mxGeometry x="485" y="-345" width="120" height="20" as="geometry" />
        </mxCell>
        <mxCell id="PIecZ1-pUtgp4aDP-7Yr-40" value="" style="endArrow=classic;html=1;rounded=0;exitX=1;exitY=0.8;exitDx=0;exitDy=0;exitPerimeter=0;" parent="1" source="PIecZ1-pUtgp4aDP-7Yr-35" target="PIecZ1-pUtgp4aDP-7Yr-42" edge="1">
          <mxGeometry width="50" height="50" relative="1" as="geometry">
            <mxPoint x="980" y="260" as="sourcePoint" />
            <mxPoint x="985" y="390" as="targetPoint" />
            <Array as="points">
              <mxPoint x="820" y="-720" />
              <mxPoint x="830" y="-810" />
              <mxPoint x="840" y="-1000" />
              <mxPoint x="160" y="-1000" />
            </Array>
          </mxGeometry>
        </mxCell>
        <mxCell id="PIecZ1-pUtgp4aDP-7Yr-42" value="" style="fontColor=#0066CC;verticalAlign=top;verticalLabelPosition=bottom;labelPosition=center;align=center;html=1;outlineConnect=0;fillColor=#CCCCCC;strokeColor=#6881B3;gradientColor=none;gradientDirection=north;strokeWidth=2;shape=mxgraph.networks.mobile;" parent="1" vertex="1">
          <mxGeometry x="101.32999999999993" y="-1495" width="150" height="290" as="geometry" />
        </mxCell>
        <mxCell id="PIecZ1-pUtgp4aDP-7Yr-51" value="" style="fontColor=#0066CC;verticalAlign=top;verticalLabelPosition=bottom;labelPosition=center;align=center;html=1;outlineConnect=0;fillColor=#CCCCCC;strokeColor=#6881B3;gradientColor=none;gradientDirection=north;strokeWidth=2;shape=mxgraph.networks.mobile;" parent="1" vertex="1">
          <mxGeometry x="112.50000000000011" y="150" width="150" height="290" as="geometry" />
        </mxCell>
        <mxCell id="PIecZ1-pUtgp4aDP-7Yr-52" value="" style="fontColor=#0066CC;verticalAlign=top;verticalLabelPosition=bottom;labelPosition=center;align=center;html=1;outlineConnect=0;fillColor=#CCCCCC;strokeColor=#6881B3;gradientColor=none;gradientDirection=north;strokeWidth=2;shape=mxgraph.networks.mobile;" parent="1" vertex="1">
          <mxGeometry x="1050" y="-872.5" width="150" height="290" as="geometry" />
        </mxCell>
        <mxCell id="PIecZ1-pUtgp4aDP-7Yr-54" value="" style="verticalLabelPosition=bottom;verticalAlign=top;html=1;shadow=0;dashed=0;strokeWidth=1;shape=mxgraph.android.contact_badge_pressed;sketch=0;" parent="1" vertex="1">
          <mxGeometry x="132.50000000000006" y="220" width="40" height="40" as="geometry" />
        </mxCell>
        <mxCell id="PIecZ1-pUtgp4aDP-7Yr-55" value="" style="verticalLabelPosition=bottom;verticalAlign=top;html=1;shadow=0;dashed=0;strokeWidth=1;shape=mxgraph.android.contact_badge_pressed;sketch=0;" parent="1" vertex="1">
          <mxGeometry x="132.50000000000006" y="310" width="40" height="40" as="geometry" />
        </mxCell>
        <mxCell id="PIecZ1-pUtgp4aDP-7Yr-57" value="Contactos" style="text;html=1;strokeColor=none;fillColor=none;align=center;verticalAlign=middle;whiteSpace=wrap;rounded=0;" parent="1" vertex="1">
          <mxGeometry x="152.50000000000006" y="175" width="70" height="40" as="geometry" />
        </mxCell>
        <mxCell id="PIecZ1-pUtgp4aDP-7Yr-58" value="Contactos" style="rounded=1;whiteSpace=wrap;html=1;" parent="1" vertex="1">
          <mxGeometry x="722.67" y="-410" width="120" height="20" as="geometry" />
        </mxCell>
        <mxCell id="PIecZ1-pUtgp4aDP-7Yr-67" value="Pessoa B" style="text;html=1;strokeColor=none;fillColor=none;align=center;verticalAlign=middle;whiteSpace=wrap;rounded=0;" parent="1" vertex="1">
          <mxGeometry x="182.50000000000006" y="276" width="60" height="30" as="geometry" />
        </mxCell>
        <mxCell id="PIecZ1-pUtgp4aDP-7Yr-68" value="Pessoa C" style="text;html=1;strokeColor=none;fillColor=none;align=center;verticalAlign=middle;whiteSpace=wrap;rounded=0;" parent="1" vertex="1">
          <mxGeometry x="182.50000000000006" y="320" width="60" height="30" as="geometry" />
        </mxCell>
        <mxCell id="PIecZ1-pUtgp4aDP-7Yr-70" value="Caso clicar em pessoas" style="text;html=1;strokeColor=#6c8ebf;fillColor=#dae8fc;align=center;verticalAlign=middle;whiteSpace=wrap;rounded=0;rotation=0;" parent="1" vertex="1">
          <mxGeometry x="187.5" y="101" width="80" height="40" as="geometry" />
        </mxCell>
        <mxCell id="PIecZ1-pUtgp4aDP-7Yr-71" value="Eventos" style="text;html=1;strokeColor=none;fillColor=none;align=center;verticalAlign=middle;whiteSpace=wrap;rounded=0;" parent="1" vertex="1">
          <mxGeometry x="1095" y="-842.5" width="60" height="30" as="geometry" />
        </mxCell>
        <mxCell id="PIecZ1-pUtgp4aDP-7Yr-72" value="Caso clicar em eventos" style="text;html=1;strokeColor=#0e8088;fillColor=#b0e3e6;align=center;verticalAlign=middle;whiteSpace=wrap;rounded=0;rotation=0;" parent="1" vertex="1">
          <mxGeometry x="1082.5" y="-915" width="80" height="40" as="geometry" />
        </mxCell>
        <mxCell id="PIecZ1-pUtgp4aDP-7Yr-75" value="Agenda" style="text;html=1;strokeColor=none;fillColor=none;align=center;verticalAlign=middle;whiteSpace=wrap;rounded=0;" parent="1" vertex="1">
          <mxGeometry x="147.66999999999996" y="-1465" width="60" height="30" as="geometry" />
        </mxCell>
        <mxCell id="PIecZ1-pUtgp4aDP-7Yr-78" value="" style="whiteSpace=wrap;html=1;aspect=fixed;" parent="1" vertex="1">
          <mxGeometry x="202.66999999999996" y="-1275" width="35" height="35" as="geometry" />
        </mxCell>
        <mxCell id="PIecZ1-pUtgp4aDP-7Yr-84" value="" style="line;strokeWidth=2;direction=south;html=1;" parent="1" vertex="1">
          <mxGeometry x="215.16999999999996" y="-1272.5" width="10" height="30" as="geometry" />
        </mxCell>
        <mxCell id="PIecZ1-pUtgp4aDP-7Yr-85" value="" style="line;strokeWidth=2;html=1;" parent="1" vertex="1">
          <mxGeometry x="205.16999999999996" y="-1262.5" width="30" height="10" as="geometry" />
        </mxCell>
        <mxCell id="PIecZ1-pUtgp4aDP-7Yr-98" value="" style="rounded=1;whiteSpace=wrap;html=1;" parent="1" vertex="1">
          <mxGeometry x="1067.5" y="-807.5" width="115" height="80" as="geometry" />
        </mxCell>
        <mxCell id="PIecZ1-pUtgp4aDP-7Yr-99" value="Grupo de estudo&lt;br&gt;X Participantes&lt;br&gt;&lt;br&gt;&lt;br&gt;Clique para ver" style="text;html=1;strokeColor=none;fillColor=none;align=center;verticalAlign=middle;whiteSpace=wrap;rounded=0;" parent="1" vertex="1">
          <mxGeometry x="1078.08" y="-787.5" width="97.5" height="40" as="geometry" />
        </mxCell>
        <mxCell id="PIecZ1-pUtgp4aDP-7Yr-100" value="Criar Evento" style="rounded=1;whiteSpace=wrap;html=1;" parent="1" vertex="1">
          <mxGeometry x="1062.5" y="-667.5" width="120" height="20" as="geometry" />
        </mxCell>
        <mxCell id="m-_DFbzXISbO1GzNLeAH-19" value="" style="fontColor=#0066CC;verticalAlign=top;verticalLabelPosition=bottom;labelPosition=center;align=center;html=1;outlineConnect=0;fillColor=#CCCCCC;strokeColor=#6881B3;gradientColor=none;gradientDirection=north;strokeWidth=2;shape=mxgraph.networks.mobile;" parent="1" vertex="1">
          <mxGeometry x="344.5" y="-1495" width="150" height="290" as="geometry" />
        </mxCell>
        <mxCell id="m-_DFbzXISbO1GzNLeAH-20" value="" style="endArrow=classic;html=1;rounded=0;" parent="1" source="PIecZ1-pUtgp4aDP-7Yr-42" target="m-_DFbzXISbO1GzNLeAH-19" edge="1">
          <mxGeometry width="50" height="50" relative="1" as="geometry">
            <mxPoint x="312.6700000000001" y="-1445" as="sourcePoint" />
            <mxPoint x="312.6700000000001" y="-1305" as="targetPoint" />
          </mxGeometry>
        </mxCell>
        <mxCell id="m-_DFbzXISbO1GzNLeAH-21" value="Caso clicar em +" style="text;html=1;strokeColor=#0e8088;fillColor=#b0e3e6;align=center;verticalAlign=middle;whiteSpace=wrap;rounded=0;rotation=0;" parent="1" vertex="1">
          <mxGeometry x="262.66999999999996" y="-1410" width="80" height="40" as="geometry" />
        </mxCell>
        <mxCell id="m-_DFbzXISbO1GzNLeAH-25" value="" style="whiteSpace=wrap;html=1;aspect=fixed;" parent="1" vertex="1">
          <mxGeometry x="450.1700000000001" y="-1277.5" width="35" height="35" as="geometry" />
        </mxCell>
        <mxCell id="m-_DFbzXISbO1GzNLeAH-23" value="" style="line;strokeWidth=2;html=1;" parent="1" vertex="1">
          <mxGeometry x="452.6700000000001" y="-1265" width="30" height="10" as="geometry" />
        </mxCell>
        <mxCell id="m-_DFbzXISbO1GzNLeAH-24" value="" style="line;strokeWidth=2;direction=south;html=1;" parent="1" vertex="1">
          <mxGeometry x="462.6700000000001" y="-1275" width="10" height="30" as="geometry" />
        </mxCell>
        <mxCell id="m-_DFbzXISbO1GzNLeAH-27" value="" style="rounded=1;whiteSpace=wrap;html=1;" parent="1" vertex="1">
          <mxGeometry x="405.1700000000001" y="-1355" width="80" height="20" as="geometry" />
        </mxCell>
        <mxCell id="m-_DFbzXISbO1GzNLeAH-26" value="Lembrete" style="text;html=1;strokeColor=none;fillColor=none;align=center;verticalAlign=middle;whiteSpace=wrap;rounded=0;" parent="1" vertex="1">
          <mxGeometry x="412.6700000000001" y="-1360" width="60" height="30" as="geometry" />
        </mxCell>
        <mxCell id="m-_DFbzXISbO1GzNLeAH-28" value="" style="rounded=1;whiteSpace=wrap;html=1;" parent="1" vertex="1">
          <mxGeometry x="405.1700000000001" y="-1330" width="80" height="20" as="geometry" />
        </mxCell>
        <mxCell id="m-_DFbzXISbO1GzNLeAH-29" value="" style="rounded=1;whiteSpace=wrap;html=1;" parent="1" vertex="1">
          <mxGeometry x="405.1700000000001" y="-1305" width="80" height="20" as="geometry" />
        </mxCell>
        <mxCell id="m-_DFbzXISbO1GzNLeAH-30" value="Teste" style="text;html=1;strokeColor=none;fillColor=none;align=center;verticalAlign=middle;whiteSpace=wrap;rounded=0;" parent="1" vertex="1">
          <mxGeometry x="415.1700000000001" y="-1335" width="60" height="30" as="geometry" />
        </mxCell>
        <mxCell id="m-_DFbzXISbO1GzNLeAH-31" value="Tarefas" style="text;html=1;strokeColor=none;fillColor=none;align=center;verticalAlign=middle;whiteSpace=wrap;rounded=0;" parent="1" vertex="1">
          <mxGeometry x="415.1700000000001" y="-1310" width="60" height="30" as="geometry" />
        </mxCell>
        <mxCell id="m-_DFbzXISbO1GzNLeAH-45" value="Agenda" style="text;html=1;strokeColor=none;fillColor=none;align=center;verticalAlign=middle;whiteSpace=wrap;rounded=0;" parent="1" vertex="1">
          <mxGeometry x="389.5" y="-1465" width="60" height="30" as="geometry" />
        </mxCell>
        <mxCell id="m-_DFbzXISbO1GzNLeAH-59" value="&lt;ul&gt;&lt;li&gt;01/11: Teste MD&lt;/li&gt;&lt;li&gt;05/11: Tarefa PO&lt;/li&gt;&lt;li&gt;09/11: Entrega&lt;/li&gt;&lt;/ul&gt;" style="text;strokeColor=none;fillColor=none;html=1;whiteSpace=wrap;verticalAlign=middle;overflow=hidden;fontSize=12;fontFamily=Helvetica;fontColor=default;" parent="1" vertex="1">
          <mxGeometry x="93.33999999999992" y="-1417.5" width="144.33" height="80" as="geometry" />
        </mxCell>
        <mxCell id="m-_DFbzXISbO1GzNLeAH-60" value="Assim pode adicionar tarefas, lembretes e avisos de testes" style="text;html=1;strokeColor=#56517e;fillColor=#d0cee2;align=center;verticalAlign=middle;whiteSpace=wrap;rounded=0;rotation=0;" parent="1" vertex="1">
          <mxGeometry x="262.66999999999996" y="-1335" width="76.34" height="90" as="geometry" />
        </mxCell>
        <mxCell id="m-_DFbzXISbO1GzNLeAH-61" value="" style="fontColor=#0066CC;verticalAlign=top;verticalLabelPosition=bottom;labelPosition=center;align=center;html=1;outlineConnect=0;fillColor=#CCCCCC;strokeColor=#6881B3;gradientColor=none;gradientDirection=north;strokeWidth=2;shape=mxgraph.networks.mobile;" parent="1" vertex="1">
          <mxGeometry x="602.6700000000001" y="-1495" width="150" height="290" as="geometry" />
        </mxCell>
        <mxCell id="m-_DFbzXISbO1GzNLeAH-62" value="" style="endArrow=classic;html=1;rounded=0;" parent="1" source="m-_DFbzXISbO1GzNLeAH-19" target="m-_DFbzXISbO1GzNLeAH-61" edge="1">
          <mxGeometry width="50" height="50" relative="1" as="geometry">
            <mxPoint x="485.1700000000001" y="-1304" as="sourcePoint" />
            <mxPoint x="577.1700000000001" y="-1305" as="targetPoint" />
          </mxGeometry>
        </mxCell>
        <mxCell id="m-_DFbzXISbO1GzNLeAH-63" value="Quando se clica para adicionar qualquer uma das 3" style="text;html=1;strokeColor=#56517e;fillColor=#d0cee2;align=center;verticalAlign=middle;whiteSpace=wrap;rounded=0;rotation=0;" parent="1" vertex="1">
          <mxGeometry x="517" y="-1457.5" width="80" height="85" as="geometry" />
        </mxCell>
        <mxCell id="m-_DFbzXISbO1GzNLeAH-64" value="Título" style="rounded=1;whiteSpace=wrap;html=1;" parent="1" vertex="1">
          <mxGeometry x="642.6700000000001" y="-1455" width="80" height="20" as="geometry" />
        </mxCell>
        <mxCell id="m-_DFbzXISbO1GzNLeAH-66" value="Data" style="rounded=1;whiteSpace=wrap;html=1;" parent="1" vertex="1">
          <mxGeometry x="642.6700000000001" y="-1422.5" width="80" height="20" as="geometry" />
        </mxCell>
        <mxCell id="m-_DFbzXISbO1GzNLeAH-67" value="Hora" style="rounded=1;whiteSpace=wrap;html=1;" parent="1" vertex="1">
          <mxGeometry x="642.6700000000001" y="-1392.5" width="80" height="20" as="geometry" />
        </mxCell>
        <mxCell id="m-_DFbzXISbO1GzNLeAH-68" value="Descrição" style="rounded=1;whiteSpace=wrap;html=1;" parent="1" vertex="1">
          <mxGeometry x="642.6700000000001" y="-1317.5" width="80" height="40" as="geometry" />
        </mxCell>
        <mxCell id="m-_DFbzXISbO1GzNLeAH-74" value="Guardar" style="rounded=1;whiteSpace=wrap;html=1;" parent="1" vertex="1">
          <mxGeometry x="667.6700000000001" y="-1265" width="70" height="20" as="geometry" />
        </mxCell>
        <mxCell id="m-_DFbzXISbO1GzNLeAH-80" value="" style="endArrow=classic;html=1;rounded=0;" parent="1" source="PIecZ1-pUtgp4aDP-7Yr-51" target="dBM1_o9W2WK-wo57AJQ_-4" edge="1">
          <mxGeometry width="50" height="50" relative="1" as="geometry">
            <mxPoint x="282.50000000000006" y="310" as="sourcePoint" />
            <mxPoint x="190" y="520" as="targetPoint" />
          </mxGeometry>
        </mxCell>
        <mxCell id="m-_DFbzXISbO1GzNLeAH-82" value="Caso clicar em alguma pessoa" style="text;html=1;strokeColor=#666666;fillColor=#f5f5f5;align=center;verticalAlign=middle;whiteSpace=wrap;rounded=0;rotation=0;fontColor=#333333;" parent="1" vertex="1">
          <mxGeometry x="212.5" y="450" width="80" height="50" as="geometry" />
        </mxCell>
        <mxCell id="m-_DFbzXISbO1GzNLeAH-92" value="" style="fontColor=#0066CC;verticalAlign=top;verticalLabelPosition=bottom;labelPosition=center;align=center;html=1;outlineConnect=0;fillColor=#CCCCCC;strokeColor=#6881B3;gradientColor=none;gradientDirection=north;strokeWidth=2;shape=mxgraph.networks.mobile;" parent="1" vertex="1">
          <mxGeometry x="1385.67" y="-630" width="150" height="290" as="geometry" />
        </mxCell>
        <mxCell id="m-_DFbzXISbO1GzNLeAH-93" value="" style="endArrow=classic;html=1;rounded=0;" parent="1" source="PIecZ1-pUtgp4aDP-7Yr-52" target="m-_DFbzXISbO1GzNLeAH-92" edge="1">
          <mxGeometry width="50" height="50" relative="1" as="geometry">
            <mxPoint x="1033.5000000000002" y="-490" as="sourcePoint" />
            <mxPoint x="1133.5000000000002" y="-490" as="targetPoint" />
            <Array as="points" />
          </mxGeometry>
        </mxCell>
        <mxCell id="m-_DFbzXISbO1GzNLeAH-94" value="Nome" style="rounded=1;whiteSpace=wrap;html=1;" parent="1" vertex="1">
          <mxGeometry x="1401.5" y="-582.5" width="120.67" height="20" as="geometry" />
        </mxCell>
        <mxCell id="m-_DFbzXISbO1GzNLeAH-96" value="Adicionar Participantes" style="rounded=1;whiteSpace=wrap;html=1;" parent="1" vertex="1">
          <mxGeometry x="1400" y="-507.5" width="122.17" height="35" as="geometry" />
        </mxCell>
        <mxCell id="m-_DFbzXISbO1GzNLeAH-97" value="Descrição" style="rounded=1;whiteSpace=wrap;html=1;" parent="1" vertex="1">
          <mxGeometry x="1400.0000000000002" y="-465" width="120" height="40" as="geometry" />
        </mxCell>
        <mxCell id="m-_DFbzXISbO1GzNLeAH-98" value="Guardar" style="rounded=1;whiteSpace=wrap;html=1;" parent="1" vertex="1">
          <mxGeometry x="1440.6700000000003" y="-400" width="80" height="20" as="geometry" />
        </mxCell>
        <mxCell id="m-_DFbzXISbO1GzNLeAH-99" value="Caso clicar em criar eventos" style="text;html=1;strokeColor=#56517e;fillColor=#d0cee2;align=center;verticalAlign=middle;whiteSpace=wrap;rounded=0;rotation=0;" parent="1" vertex="1">
          <mxGeometry x="1255.3300000000004" y="-660" width="80" height="40" as="geometry" />
        </mxCell>
        <mxCell id="m-_DFbzXISbO1GzNLeAH-101" value="" style="fontColor=#0066CC;verticalAlign=top;verticalLabelPosition=bottom;labelPosition=center;align=center;html=1;outlineConnect=0;fillColor=#CCCCCC;strokeColor=#6881B3;gradientColor=none;gradientDirection=north;strokeWidth=2;shape=mxgraph.networks.mobile;" parent="1" vertex="1">
          <mxGeometry x="448.17000000000013" y="126" width="150" height="290" as="geometry" />
        </mxCell>
        <mxCell id="m-_DFbzXISbO1GzNLeAH-103" value="" style="endArrow=classic;html=1;rounded=0;exitX=0.987;exitY=0.135;exitDx=0;exitDy=0;exitPerimeter=0;" parent="1" source="PIecZ1-pUtgp4aDP-7Yr-36" target="m-_DFbzXISbO1GzNLeAH-102" edge="1">
          <mxGeometry width="50" height="50" relative="1" as="geometry">
            <mxPoint x="690" y="-203" as="sourcePoint" />
            <mxPoint x="753" y="155" as="targetPoint" />
          </mxGeometry>
        </mxCell>
        <mxCell id="m-_DFbzXISbO1GzNLeAH-104" value="" style="fontColor=#0066CC;verticalAlign=top;verticalLabelPosition=bottom;labelPosition=center;align=center;html=1;outlineConnect=0;fillColor=#CCCCCC;strokeColor=#6881B3;gradientColor=none;gradientDirection=north;strokeWidth=2;shape=mxgraph.networks.mobile;" parent="1" vertex="1">
          <mxGeometry x="881.0000000000001" y="-275" width="150" height="290" as="geometry" />
        </mxCell>
        <mxCell id="m-_DFbzXISbO1GzNLeAH-105" value="" style="endArrow=classic;html=1;rounded=0;exitX=1.012;exitY=0.458;exitDx=0;exitDy=0;exitPerimeter=0;" parent="1" source="PIecZ1-pUtgp4aDP-7Yr-37" target="m-_DFbzXISbO1GzNLeAH-104" edge="1">
          <mxGeometry width="50" height="50" relative="1" as="geometry">
            <mxPoint x="710" y="-260" as="sourcePoint" />
            <mxPoint x="866" y="47" as="targetPoint" />
          </mxGeometry>
        </mxCell>
        <mxCell id="m-_DFbzXISbO1GzNLeAH-107" value="Caso clicar em disciplinas" style="text;html=1;strokeColor=#0e8088;fillColor=#b0e3e6;align=center;verticalAlign=middle;whiteSpace=wrap;rounded=0;rotation=30;" parent="1" vertex="1">
          <mxGeometry x="790" y="-300" width="80" height="40" as="geometry" />
        </mxCell>
        <mxCell id="m-_DFbzXISbO1GzNLeAH-108" value="Caso clicar em Horário" style="text;html=1;strokeColor=#0e8088;fillColor=#b0e3e6;align=center;verticalAlign=middle;whiteSpace=wrap;rounded=0;rotation=0;" parent="1" vertex="1">
          <mxGeometry x="755.9200000000001" y="45" width="80" height="40" as="geometry" />
        </mxCell>
        <mxCell id="m-_DFbzXISbO1GzNLeAH-109" value="Caso clicar em Notas" style="text;html=1;strokeColor=#6c8ebf;fillColor=#dae8fc;align=center;verticalAlign=middle;whiteSpace=wrap;rounded=0;rotation=0;" parent="1" vertex="1">
          <mxGeometry x="548.1700000000001" y="61" width="80" height="40" as="geometry" />
        </mxCell>
        <mxCell id="m-_DFbzXISbO1GzNLeAH-110" value="Matéria 1" style="rounded=1;whiteSpace=wrap;html=1;" parent="1" vertex="1">
          <mxGeometry x="896.0000000000001" y="-190" width="120" height="20" as="geometry" />
        </mxCell>
        <mxCell id="m-_DFbzXISbO1GzNLeAH-111" value="Matéria 2" style="rounded=1;whiteSpace=wrap;html=1;" parent="1" vertex="1">
          <mxGeometry x="896.0000000000001" y="-160" width="120" height="20" as="geometry" />
        </mxCell>
        <mxCell id="m-_DFbzXISbO1GzNLeAH-112" value="Matéria 3" style="rounded=1;whiteSpace=wrap;html=1;" parent="1" vertex="1">
          <mxGeometry x="896.0000000000001" y="-130" width="120" height="20" as="geometry" />
        </mxCell>
        <mxCell id="m-_DFbzXISbO1GzNLeAH-113" value="Matéria 4" style="rounded=1;whiteSpace=wrap;html=1;" parent="1" vertex="1">
          <mxGeometry x="896.0000000000001" y="-100" width="120" height="20" as="geometry" />
        </mxCell>
        <mxCell id="m-_DFbzXISbO1GzNLeAH-115" value="" style="endArrow=classic;html=1;rounded=0;" parent="1" source="m-_DFbzXISbO1GzNLeAH-104" target="m-_DFbzXISbO1GzNLeAH-116" edge="1">
          <mxGeometry width="50" height="50" relative="1" as="geometry">
            <mxPoint x="1035" y="-175" as="sourcePoint" />
            <mxPoint x="1270" y="-114" as="targetPoint" />
          </mxGeometry>
        </mxCell>
        <mxCell id="m-_DFbzXISbO1GzNLeAH-116" value="" style="fontColor=#0066CC;verticalAlign=top;verticalLabelPosition=bottom;labelPosition=center;align=center;html=1;outlineConnect=0;fillColor=#CCCCCC;strokeColor=#6881B3;gradientColor=none;gradientDirection=north;strokeWidth=2;shape=mxgraph.networks.mobile;" parent="1" vertex="1">
          <mxGeometry x="1240" y="30" width="150" height="290" as="geometry" />
        </mxCell>
        <mxCell id="m-_DFbzXISbO1GzNLeAH-117" value="Caso clique em adicionar disciplinas" style="text;html=1;strokeColor=#56517e;fillColor=#d0cee2;align=center;verticalAlign=middle;whiteSpace=wrap;rounded=0;rotation=0;" parent="1" vertex="1">
          <mxGeometry x="1033.5" y="116" width="80" height="50" as="geometry" />
        </mxCell>
        <mxCell id="m-_DFbzXISbO1GzNLeAH-118" value="Guardar" style="rounded=1;whiteSpace=wrap;html=1;" parent="1" vertex="1">
          <mxGeometry x="1296.83" y="246" width="78.5" height="20" as="geometry" />
        </mxCell>
        <mxCell id="m-_DFbzXISbO1GzNLeAH-119" value="Nome" style="rounded=1;whiteSpace=wrap;html=1;" parent="1" vertex="1">
          <mxGeometry x="1255" y="75" width="120" height="20" as="geometry" />
        </mxCell>
        <mxCell id="m-_DFbzXISbO1GzNLeAH-120" value="Professor" style="rounded=1;whiteSpace=wrap;html=1;" parent="1" vertex="1">
          <mxGeometry x="781.9100000000001" y="578" width="120" height="20" as="geometry" />
        </mxCell>
        <mxCell id="m-_DFbzXISbO1GzNLeAH-121" value="Sala" style="rounded=1;whiteSpace=wrap;html=1;" parent="1" vertex="1">
          <mxGeometry x="1255" y="136" width="120" height="20" as="geometry" />
        </mxCell>
        <mxCell id="m-_DFbzXISbO1GzNLeAH-140" value="" style="endArrow=classic;html=1;rounded=0;" parent="1" source="m-_DFbzXISbO1GzNLeAH-102" target="m-_DFbzXISbO1GzNLeAH-141" edge="1">
          <mxGeometry width="50" height="50" relative="1" as="geometry">
            <mxPoint x="1012.4200000000001" y="79.5" as="sourcePoint" />
            <mxPoint x="1208.42" y="370.5" as="targetPoint" />
          </mxGeometry>
        </mxCell>
        <mxCell id="m-_DFbzXISbO1GzNLeAH-141" value="" style="fontColor=#0066CC;verticalAlign=top;verticalLabelPosition=bottom;labelPosition=center;align=center;html=1;outlineConnect=0;fillColor=#CCCCCC;strokeColor=#6881B3;gradientColor=none;gradientDirection=north;strokeWidth=2;shape=mxgraph.networks.mobile;" parent="1" vertex="1">
          <mxGeometry x="769.84" y="500" width="160.83" height="320" as="geometry" />
        </mxCell>
        <mxCell id="m-_DFbzXISbO1GzNLeAH-142" value="Caso clique em adicionar horário" style="text;html=1;strokeColor=#56517e;fillColor=#d0cee2;align=center;verticalAlign=middle;whiteSpace=wrap;rounded=0;rotation=0;" parent="1" vertex="1">
          <mxGeometry x="940.67" y="510" width="80" height="40" as="geometry" />
        </mxCell>
        <mxCell id="m-_DFbzXISbO1GzNLeAH-143" value="Guardar" style="rounded=1;whiteSpace=wrap;html=1;" parent="1" vertex="1">
          <mxGeometry x="839.5799999999999" y="760" width="78.5" height="20" as="geometry" />
        </mxCell>
        <mxCell id="m-_DFbzXISbO1GzNLeAH-146" value="Data" style="rounded=1;whiteSpace=wrap;html=1;" parent="1" vertex="1">
          <mxGeometry x="788.17" y="617.5" width="120" height="20" as="geometry" />
        </mxCell>
        <mxCell id="m-_DFbzXISbO1GzNLeAH-149" value="" style="fontColor=#0066CC;verticalAlign=top;verticalLabelPosition=bottom;labelPosition=center;align=center;html=1;outlineConnect=0;fillColor=#CCCCCC;strokeColor=#6881B3;gradientColor=none;gradientDirection=north;strokeWidth=2;shape=mxgraph.networks.mobile;" parent="1" vertex="1">
          <mxGeometry x="443.51" y="475" width="156.49" height="305" as="geometry" />
        </mxCell>
        <mxCell id="m-_DFbzXISbO1GzNLeAH-150" value="" style="endArrow=classic;html=1;rounded=0;" parent="1" source="m-_DFbzXISbO1GzNLeAH-101" target="m-_DFbzXISbO1GzNLeAH-149" edge="1">
          <mxGeometry width="50" height="50" relative="1" as="geometry">
            <mxPoint x="693.3399999999999" y="-44" as="sourcePoint" />
            <mxPoint x="781.3399999999999" y="559" as="targetPoint" />
          </mxGeometry>
        </mxCell>
        <mxCell id="m-_DFbzXISbO1GzNLeAH-154" value="Caso clicar em adicionar Notas" style="text;html=1;strokeColor=#666666;fillColor=#f5f5f5;align=center;verticalAlign=middle;whiteSpace=wrap;rounded=0;rotation=0;fontColor=#333333;" parent="1" vertex="1">
          <mxGeometry x="584.17" y="420" width="80" height="51" as="geometry" />
        </mxCell>
        <mxCell id="m-_DFbzXISbO1GzNLeAH-155" value="Guardar" style="rounded=1;whiteSpace=wrap;html=1;" parent="1" vertex="1">
          <mxGeometry x="513.75" y="720" width="78.5" height="20" as="geometry" />
        </mxCell>
        <mxCell id="m-_DFbzXISbO1GzNLeAH-156" value="UC" style="rounded=1;whiteSpace=wrap;html=1;" parent="1" vertex="1">
          <mxGeometry x="459.75999999999993" y="510" width="120" height="20" as="geometry" />
        </mxCell>
        <mxCell id="m-_DFbzXISbO1GzNLeAH-157" value="Nota" style="rounded=1;whiteSpace=wrap;html=1;" parent="1" vertex="1">
          <mxGeometry x="458.16999999999996" y="537" width="120" height="20" as="geometry" />
        </mxCell>
        <mxCell id="m-_DFbzXISbO1GzNLeAH-160" value="Peso" style="rounded=1;whiteSpace=wrap;html=1;" parent="1" vertex="1">
          <mxGeometry x="459.75999999999993" y="570" width="120" height="20" as="geometry" />
        </mxCell>
        <mxCell id="m-_DFbzXISbO1GzNLeAH-163" value="E um parâmetro usado onde vamos calcular a media ponderada. Se o valor não for especificado, será considerado apenas a média aritmética (soma das avaliações/ número de avaliações)" style="text;html=1;strokeColor=#9673a6;fillColor=#e1d5e7;align=center;verticalAlign=middle;whiteSpace=wrap;rounded=0;rotation=0;" parent="1" vertex="1">
          <mxGeometry x="525" y="800" width="151.83" height="172.5" as="geometry" />
        </mxCell>
        <mxCell id="m-_DFbzXISbO1GzNLeAH-164" value="" style="endArrow=classic;html=1;rounded=0;entryX=-0.002;entryY=0.414;entryDx=0;entryDy=0;entryPerimeter=0;" parent="1" source="m-_DFbzXISbO1GzNLeAH-160" target="m-_DFbzXISbO1GzNLeAH-163" edge="1">
          <mxGeometry width="50" height="50" relative="1" as="geometry">
            <mxPoint x="1007.84" y="374.5" as="sourcePoint" />
            <mxPoint x="642.4999999999999" y="641" as="targetPoint" />
          </mxGeometry>
        </mxCell>
        <mxCell id="m-_DFbzXISbO1GzNLeAH-165" value="Hora_Inicio" style="rounded=1;whiteSpace=wrap;html=1;" parent="1" vertex="1">
          <mxGeometry x="791.5799999999999" y="645" width="120" height="20" as="geometry" />
        </mxCell>
        <mxCell id="m-_DFbzXISbO1GzNLeAH-166" value="Notas" style="shape=table;startSize=25;container=1;collapsible=0;childLayout=tableLayout;fixedRows=1;rowLines=0;fontStyle=0;strokeColor=default;fontSize=16;rounded=1;sketch=1;fillWeight=4;hachureGap=8;hachureAngle=45;strokeWidth=2;align=center;verticalAlign=middle;fontFamily=Helvetica;fontColor=default;fillColor=#1ba1e2;html=1;" parent="1" vertex="1">
          <mxGeometry x="458.17" y="181" width="130" height="125" as="geometry" />
        </mxCell>
        <mxCell id="m-_DFbzXISbO1GzNLeAH-167" value="" style="shape=tableRow;horizontal=0;startSize=0;swimlaneHead=0;swimlaneBody=0;top=0;left=0;bottom=0;right=0;collapsible=0;dropTarget=0;fillColor=none;points=[[0,0.5],[1,0.5]];portConstraint=eastwest;strokeColor=inherit;fontSize=16;rounded=1;sketch=1;fillWeight=4;hachureGap=8;hachureAngle=45;strokeWidth=2;align=center;verticalAlign=middle;fontFamily=Helvetica;fontColor=default;html=1;" parent="m-_DFbzXISbO1GzNLeAH-166" vertex="1">
          <mxGeometry y="25" width="130" height="30" as="geometry" />
        </mxCell>
        <mxCell id="m-_DFbzXISbO1GzNLeAH-168" value="1" style="shape=partialRectangle;html=1;whiteSpace=wrap;connectable=0;fillColor=none;top=0;left=0;bottom=0;right=0;overflow=hidden;pointerEvents=1;strokeColor=inherit;fontSize=16;rounded=1;sketch=1;fillWeight=4;hachureGap=8;hachureAngle=45;strokeWidth=2;align=center;verticalAlign=middle;fontFamily=Helvetica;fontColor=default;" parent="m-_DFbzXISbO1GzNLeAH-167" vertex="1">
          <mxGeometry width="29" height="30" as="geometry">
            <mxRectangle width="29" height="30" as="alternateBounds" />
          </mxGeometry>
        </mxCell>
        <mxCell id="m-_DFbzXISbO1GzNLeAH-169" value="10,9" style="shape=partialRectangle;html=1;whiteSpace=wrap;connectable=0;fillColor=none;top=0;left=0;bottom=0;right=0;align=left;spacingLeft=6;overflow=hidden;strokeColor=inherit;fontSize=16;rounded=1;sketch=1;fillWeight=4;hachureGap=8;hachureAngle=45;strokeWidth=2;verticalAlign=middle;fontFamily=Helvetica;fontColor=default;" parent="m-_DFbzXISbO1GzNLeAH-167" vertex="1">
          <mxGeometry x="29" width="101" height="30" as="geometry">
            <mxRectangle width="101" height="30" as="alternateBounds" />
          </mxGeometry>
        </mxCell>
        <mxCell id="m-_DFbzXISbO1GzNLeAH-170" value="" style="shape=tableRow;horizontal=0;startSize=0;swimlaneHead=0;swimlaneBody=0;top=0;left=0;bottom=0;right=0;collapsible=0;dropTarget=0;fillColor=none;points=[[0,0.5],[1,0.5]];portConstraint=eastwest;strokeColor=inherit;fontSize=16;rounded=1;sketch=1;fillWeight=4;hachureGap=8;hachureAngle=45;strokeWidth=2;align=center;verticalAlign=middle;fontFamily=Helvetica;fontColor=default;html=1;" parent="m-_DFbzXISbO1GzNLeAH-166" vertex="1">
          <mxGeometry y="55" width="130" height="30" as="geometry" />
        </mxCell>
        <mxCell id="m-_DFbzXISbO1GzNLeAH-171" value="2" style="shape=partialRectangle;html=1;whiteSpace=wrap;connectable=0;fillColor=none;top=0;left=0;bottom=0;right=0;overflow=hidden;strokeColor=inherit;fontSize=16;rounded=1;sketch=1;fillWeight=4;hachureGap=8;hachureAngle=45;strokeWidth=2;align=center;verticalAlign=middle;fontFamily=Helvetica;fontColor=default;" parent="m-_DFbzXISbO1GzNLeAH-170" vertex="1">
          <mxGeometry width="29" height="30" as="geometry">
            <mxRectangle width="29" height="30" as="alternateBounds" />
          </mxGeometry>
        </mxCell>
        <mxCell id="m-_DFbzXISbO1GzNLeAH-172" value="9,8" style="shape=partialRectangle;html=1;whiteSpace=wrap;connectable=0;fillColor=none;top=0;left=0;bottom=0;right=0;align=left;spacingLeft=6;overflow=hidden;strokeColor=inherit;fontSize=16;rounded=1;sketch=1;fillWeight=4;hachureGap=8;hachureAngle=45;strokeWidth=2;verticalAlign=middle;fontFamily=Helvetica;fontColor=default;" parent="m-_DFbzXISbO1GzNLeAH-170" vertex="1">
          <mxGeometry x="29" width="101" height="30" as="geometry">
            <mxRectangle width="101" height="30" as="alternateBounds" />
          </mxGeometry>
        </mxCell>
        <mxCell id="m-_DFbzXISbO1GzNLeAH-173" value="" style="shape=tableRow;horizontal=0;startSize=0;swimlaneHead=0;swimlaneBody=0;top=0;left=0;bottom=0;right=0;collapsible=0;dropTarget=0;fillColor=none;points=[[0,0.5],[1,0.5]];portConstraint=eastwest;strokeColor=inherit;fontSize=16;rounded=1;sketch=1;fillWeight=4;hachureGap=8;hachureAngle=45;strokeWidth=2;align=center;verticalAlign=middle;fontFamily=Helvetica;fontColor=default;html=1;" parent="m-_DFbzXISbO1GzNLeAH-166" vertex="1">
          <mxGeometry y="85" width="130" height="30" as="geometry" />
        </mxCell>
        <mxCell id="m-_DFbzXISbO1GzNLeAH-174" value="3" style="shape=partialRectangle;html=1;whiteSpace=wrap;connectable=0;fillColor=none;top=0;left=0;bottom=0;right=0;overflow=hidden;strokeColor=inherit;fontSize=16;rounded=1;sketch=1;fillWeight=4;hachureGap=8;hachureAngle=45;strokeWidth=2;align=center;verticalAlign=middle;fontFamily=Helvetica;fontColor=default;" parent="m-_DFbzXISbO1GzNLeAH-173" vertex="1">
          <mxGeometry width="29" height="30" as="geometry">
            <mxRectangle width="29" height="30" as="alternateBounds" />
          </mxGeometry>
        </mxCell>
        <mxCell id="m-_DFbzXISbO1GzNLeAH-175" value="3,45" style="shape=partialRectangle;html=1;whiteSpace=wrap;connectable=0;fillColor=none;top=0;left=0;bottom=0;right=0;align=left;spacingLeft=6;overflow=hidden;strokeColor=inherit;fontSize=16;rounded=1;sketch=1;fillWeight=4;hachureGap=8;hachureAngle=45;strokeWidth=2;verticalAlign=middle;fontFamily=Helvetica;fontColor=default;" parent="m-_DFbzXISbO1GzNLeAH-173" vertex="1">
          <mxGeometry x="29" width="101" height="30" as="geometry">
            <mxRectangle width="101" height="30" as="alternateBounds" />
          </mxGeometry>
        </mxCell>
        <mxCell id="m-_DFbzXISbO1GzNLeAH-176" value="" style="endArrow=classic;html=1;rounded=0;exitX=0.015;exitY=0.906;exitDx=0;exitDy=0;exitPerimeter=0;entryX=0.654;entryY=0.01;entryDx=0;entryDy=0;entryPerimeter=0;" parent="1" source="m-_DFbzXISbO1GzNLeAH-173" target="m-_DFbzXISbO1GzNLeAH-177" edge="1">
          <mxGeometry width="50" height="50" relative="1" as="geometry">
            <mxPoint x="386.75" y="294.5" as="sourcePoint" />
            <mxPoint x="417.50000000000006" y="346" as="targetPoint" />
          </mxGeometry>
        </mxCell>
        <mxCell id="m-_DFbzXISbO1GzNLeAH-177" value="Identificação da matéria" style="text;html=1;strokeColor=#82b366;fillColor=#d5e8d4;align=center;verticalAlign=middle;whiteSpace=wrap;rounded=0;rotation=0;" parent="1" vertex="1">
          <mxGeometry x="360" y="316" width="77.5" height="50" as="geometry" />
        </mxCell>
        <mxCell id="m-_DFbzXISbO1GzNLeAH-178" value="" style="verticalLabelPosition=bottom;verticalAlign=top;html=1;shadow=0;dashed=0;strokeWidth=1;shape=mxgraph.android.contact_badge_pressed;sketch=0;" parent="1" vertex="1">
          <mxGeometry x="790" y="-520" width="40" height="40" as="geometry" />
        </mxCell>
        <mxCell id="qVZnhwR5oblb5ogb_L6s-5" value="" style="endArrow=classic;html=1;rounded=0;" parent="1" source="qVZnhwR5oblb5ogb_L6s-7" target="qVZnhwR5oblb5ogb_L6s-6" edge="1">
          <mxGeometry width="50" height="50" relative="1" as="geometry">
            <mxPoint x="1140" y="-420" as="sourcePoint" />
            <mxPoint x="1360" y="-250" as="targetPoint" />
          </mxGeometry>
        </mxCell>
        <mxCell id="qVZnhwR5oblb5ogb_L6s-6" value="" style="fontColor=#0066CC;verticalAlign=top;verticalLabelPosition=bottom;labelPosition=center;align=center;html=1;outlineConnect=0;fillColor=#CCCCCC;strokeColor=#6881B3;gradientColor=none;gradientDirection=north;strokeWidth=2;shape=mxgraph.networks.mobile;" parent="1" vertex="1">
          <mxGeometry x="1385.3300000000002" y="-315" width="150" height="290" as="geometry" />
        </mxCell>
        <mxCell id="dBM1_o9W2WK-wo57AJQ_-2" value="" style="verticalLabelPosition=bottom;verticalAlign=top;html=1;shadow=0;dashed=0;strokeWidth=1;shape=mxgraph.android.contact_badge_pressed;sketch=0;" parent="1" vertex="1">
          <mxGeometry x="132.50000000000006" y="265" width="40" height="40" as="geometry" />
        </mxCell>
        <mxCell id="dBM1_o9W2WK-wo57AJQ_-3" value="Pessoa A" style="text;html=1;strokeColor=none;fillColor=none;align=center;verticalAlign=middle;whiteSpace=wrap;rounded=0;" parent="1" vertex="1">
          <mxGeometry x="180.00000000000006" y="227.5" width="60" height="30" as="geometry" />
        </mxCell>
        <mxCell id="dBM1_o9W2WK-wo57AJQ_-4" value="" style="fontColor=#0066CC;verticalAlign=top;verticalLabelPosition=bottom;labelPosition=center;align=center;html=1;outlineConnect=0;fillColor=#CCCCCC;strokeColor=#6881B3;gradientColor=none;gradientDirection=north;strokeWidth=2;shape=mxgraph.networks.mobile;" parent="1" vertex="1">
          <mxGeometry x="117.50000000000004" y="537" width="150" height="290" as="geometry" />
        </mxCell>
        <mxCell id="dBM1_o9W2WK-wo57AJQ_-5" value="" style="verticalLabelPosition=bottom;verticalAlign=top;html=1;shadow=0;dashed=0;strokeWidth=1;shape=mxgraph.android.contact_badge_pressed;sketch=0;" parent="1" vertex="1">
          <mxGeometry x="170.00000000000006" y="570" width="40" height="40" as="geometry" />
        </mxCell>
        <mxCell id="dBM1_o9W2WK-wo57AJQ_-6" value="Pessoa A" style="text;html=1;strokeColor=none;fillColor=none;align=center;verticalAlign=middle;whiteSpace=wrap;rounded=0;" parent="1" vertex="1">
          <mxGeometry x="162.50000000000006" y="620" width="60" height="30" as="geometry" />
        </mxCell>
        <mxCell id="dBM1_o9W2WK-wo57AJQ_-8" value="Adicionar Amigo" style="rounded=1;whiteSpace=wrap;html=1;" parent="1" vertex="1">
          <mxGeometry x="146.25" y="672" width="87.5" height="34" as="geometry" />
        </mxCell>
        <mxCell id="Rh49TcZlt0-jSSoLgnau-1" value="UCs&lt;div style=&quot;text-align: center;&quot;&gt;&lt;/div&gt;" style="text;whiteSpace=wrap;html=1;" parent="1" vertex="1">
          <mxGeometry x="940" y="-240" width="23.75" height="20" as="geometry" />
        </mxCell>
        <mxCell id="Rh49TcZlt0-jSSoLgnau-2" value="" style="endArrow=classic;html=1;rounded=0;" parent="1" source="m-_DFbzXISbO1GzNLeAH-96" edge="1">
          <mxGeometry width="50" height="50" relative="1" as="geometry">
            <mxPoint x="1525.33" y="-443.5008807750819" as="sourcePoint" />
            <mxPoint x="1750" y="-446.4991192249181" as="targetPoint" />
            <Array as="points" />
          </mxGeometry>
        </mxCell>
        <mxCell id="Rh49TcZlt0-jSSoLgnau-7" value="" style="fontColor=#0066CC;verticalAlign=top;verticalLabelPosition=bottom;labelPosition=center;align=center;html=1;outlineConnect=0;fillColor=#CCCCCC;strokeColor=#6881B3;gradientColor=none;gradientDirection=north;strokeWidth=2;shape=mxgraph.networks.mobile;" parent="1" vertex="1">
          <mxGeometry x="1760" y="-320" width="150" height="290" as="geometry" />
        </mxCell>
        <mxCell id="Rh49TcZlt0-jSSoLgnau-8" value="" style="verticalLabelPosition=bottom;verticalAlign=top;html=1;shadow=0;dashed=0;strokeWidth=1;shape=mxgraph.android.contact_badge_pressed;sketch=0;" parent="1" vertex="1">
          <mxGeometry x="1784" y="-252.5" width="40" height="40" as="geometry" />
        </mxCell>
        <mxCell id="Rh49TcZlt0-jSSoLgnau-9" value="" style="verticalLabelPosition=bottom;verticalAlign=top;html=1;shadow=0;dashed=0;strokeWidth=1;shape=mxgraph.android.contact_badge_pressed;sketch=0;" parent="1" vertex="1">
          <mxGeometry x="1784" y="-162.5" width="40" height="40" as="geometry" />
        </mxCell>
        <mxCell id="Rh49TcZlt0-jSSoLgnau-11" value="Pessoa B" style="text;html=1;strokeColor=none;fillColor=none;align=center;verticalAlign=middle;whiteSpace=wrap;rounded=0;" parent="1" vertex="1">
          <mxGeometry x="1834" y="-196.5" width="60" height="30" as="geometry" />
        </mxCell>
        <mxCell id="Rh49TcZlt0-jSSoLgnau-12" value="Pessoa C" style="text;html=1;strokeColor=none;fillColor=none;align=center;verticalAlign=middle;whiteSpace=wrap;rounded=0;" parent="1" vertex="1">
          <mxGeometry x="1834" y="-152.5" width="60" height="30" as="geometry" />
        </mxCell>
        <mxCell id="Rh49TcZlt0-jSSoLgnau-13" value="" style="verticalLabelPosition=bottom;verticalAlign=top;html=1;shadow=0;dashed=0;strokeWidth=1;shape=mxgraph.android.contact_badge_pressed;sketch=0;" parent="1" vertex="1">
          <mxGeometry x="1784" y="-207.5" width="40" height="40" as="geometry" />
        </mxCell>
        <mxCell id="Rh49TcZlt0-jSSoLgnau-14" value="Pessoa A" style="text;html=1;strokeColor=none;fillColor=none;align=center;verticalAlign=middle;whiteSpace=wrap;rounded=0;" parent="1" vertex="1">
          <mxGeometry x="1831.5" y="-245" width="60" height="30" as="geometry" />
        </mxCell>
        <mxCell id="Rh49TcZlt0-jSSoLgnau-5" value="&lt;span style=&quot;color: rgb(0, 0, 0); font-family: Helvetica; font-size: 12px; font-style: normal; font-variant-ligatures: normal; font-variant-caps: normal; font-weight: 400; letter-spacing: normal; orphans: 2; text-align: center; text-indent: 0px; text-transform: none; widows: 2; word-spacing: 0px; -webkit-text-stroke-width: 0px; background-color: rgb(251, 251, 251); text-decoration-thickness: initial; text-decoration-style: initial; text-decoration-color: initial; float: none; display: inline !important;&quot;&gt;Participantes&lt;/span&gt;" style="text;whiteSpace=wrap;html=1;" parent="1" vertex="1">
          <mxGeometry x="1793" y="-282.5" width="70" height="20" as="geometry" />
        </mxCell>
        <mxCell id="Rh49TcZlt0-jSSoLgnau-15" value="&lt;span style=&quot;color: rgb(0, 0, 0); font-family: Helvetica; font-size: 12px; font-style: normal; font-variant-ligatures: normal; font-variant-caps: normal; font-weight: 400; letter-spacing: normal; orphans: 2; text-align: center; text-indent: 0px; text-transform: none; widows: 2; word-spacing: 0px; -webkit-text-stroke-width: 0px; background-color: rgb(251, 251, 251); text-decoration-thickness: initial; text-decoration-style: initial; text-decoration-color: initial; float: none; display: inline !important;&quot;&gt;Nome do Evento&lt;/span&gt;" style="text;whiteSpace=wrap;html=1;" parent="1" vertex="1">
          <mxGeometry x="1415.67" y="-280" width="94.33" height="35" as="geometry" />
        </mxCell>
        <mxCell id="Rh49TcZlt0-jSSoLgnau-16" value="Descrição" style="rounded=1;whiteSpace=wrap;html=1;" parent="1" vertex="1">
          <mxGeometry x="1400.0000000000005" y="-190" width="120" height="40" as="geometry" />
        </mxCell>
        <mxCell id="Rh49TcZlt0-jSSoLgnau-18" value="Ver Participantes" style="rounded=1;whiteSpace=wrap;html=1;" parent="1" vertex="1">
          <mxGeometry x="1402.8400000000004" y="-140" width="120" height="20" as="geometry" />
        </mxCell>
        <mxCell id="Rh49TcZlt0-jSSoLgnau-22" value="Caso clicar em ver participantes" style="text;html=1;strokeColor=#56517e;fillColor=#d0cee2;align=center;verticalAlign=middle;whiteSpace=wrap;rounded=0;rotation=0;" parent="1" vertex="1">
          <mxGeometry x="1620" y="-202.5" width="90" height="50" as="geometry" />
        </mxCell>
        <mxCell id="clo_gxIJwNrEaGsPzjzJ-1" value="" style="shape=waypoint;sketch=0;fillStyle=solid;size=6;pointerEvents=1;points=[];fillColor=none;resizable=0;rotatable=0;perimeter=centerPerimeter;snapToPoint=1;" parent="1" vertex="1">
          <mxGeometry x="222.5" y="-702.5" width="20" height="20" as="geometry" />
        </mxCell>
        <mxCell id="clo_gxIJwNrEaGsPzjzJ-2" value="" style="shape=waypoint;sketch=0;fillStyle=solid;size=6;pointerEvents=1;points=[];fillColor=none;resizable=0;rotatable=0;perimeter=centerPerimeter;snapToPoint=1;" parent="1" vertex="1">
          <mxGeometry x="228.75" y="-540" width="20" height="20" as="geometry" />
        </mxCell>
        <mxCell id="clo_gxIJwNrEaGsPzjzJ-8" value="" style="shape=waypoint;sketch=0;fillStyle=solid;size=6;pointerEvents=1;points=[];fillColor=none;resizable=0;rotatable=0;perimeter=centerPerimeter;snapToPoint=1;" parent="1" vertex="1">
          <mxGeometry x="538.51" y="-770" width="20" height="20" as="geometry" />
        </mxCell>
        <mxCell id="clo_gxIJwNrEaGsPzjzJ-13" value="UC" style="rounded=1;whiteSpace=wrap;html=1;" parent="1" vertex="1">
          <mxGeometry x="642.6700000000001" y="-1365" width="80" height="20" as="geometry" />
        </mxCell>
        <mxCell id="clo_gxIJwNrEaGsPzjzJ-14" value="" style="whiteSpace=wrap;html=1;aspect=fixed;" parent="1" vertex="1">
          <mxGeometry x="118.33000000000004" y="-1397.5" width="10" height="10" as="geometry" />
        </mxCell>
        <mxCell id="clo_gxIJwNrEaGsPzjzJ-15" value="" style="whiteSpace=wrap;html=1;aspect=fixed;" parent="1" vertex="1">
          <mxGeometry x="118.25" y="-1382.5" width="10" height="10" as="geometry" />
        </mxCell>
        <mxCell id="clo_gxIJwNrEaGsPzjzJ-16" value="" style="whiteSpace=wrap;html=1;aspect=fixed;" parent="1" vertex="1">
          <mxGeometry x="118.33000000000004" y="-1367.5" width="10" height="10" as="geometry" />
        </mxCell>
        <mxCell id="clo_gxIJwNrEaGsPzjzJ-17" value="Entrar no evento" style="rounded=1;whiteSpace=wrap;html=1;" parent="1" vertex="1">
          <mxGeometry x="1402.8400000000004" y="-110" width="120" height="20" as="geometry" />
        </mxCell>
        <mxCell id="clo_gxIJwNrEaGsPzjzJ-18" value="" style="fontColor=#0066CC;verticalAlign=top;verticalLabelPosition=bottom;labelPosition=center;align=center;html=1;outlineConnect=0;fillColor=#CCCCCC;strokeColor=#6881B3;gradientColor=none;gradientDirection=north;strokeWidth=2;shape=mxgraph.networks.mobile;" parent="1" vertex="1">
          <mxGeometry x="928.1699999999998" y="-1500" width="150" height="290" as="geometry" />
        </mxCell>
        <mxCell id="clo_gxIJwNrEaGsPzjzJ-19" value="Caso clicar em Usuario" style="text;html=1;strokeColor=#0e8088;fillColor=#b0e3e6;align=center;verticalAlign=middle;whiteSpace=wrap;rounded=0;rotation=0;" parent="1" vertex="1">
          <mxGeometry x="958.59" y="-1580" width="80" height="40" as="geometry" />
        </mxCell>
        <mxCell id="clo_gxIJwNrEaGsPzjzJ-20" value="" style="verticalLabelPosition=bottom;verticalAlign=top;html=1;shadow=0;dashed=0;strokeWidth=1;shape=mxgraph.android.contact_badge_pressed;sketch=0;" parent="1" vertex="1">
          <mxGeometry x="944.5899999999999" y="-1460" width="40" height="40" as="geometry" />
        </mxCell>
        <mxCell id="clo_gxIJwNrEaGsPzjzJ-21" value="Nome" style="text;html=1;strokeColor=none;fillColor=none;align=center;verticalAlign=middle;whiteSpace=wrap;rounded=0;" parent="1" vertex="1">
          <mxGeometry x="996.76" y="-1455" width="60" height="30" as="geometry" />
        </mxCell>
        <mxCell id="clo_gxIJwNrEaGsPzjzJ-22" value="Alterar Dados" style="rounded=0;whiteSpace=wrap;html=1;" parent="1" vertex="1">
          <mxGeometry x="944.5899999999999" y="-1380" width="120" height="20" as="geometry" />
        </mxCell>
        <mxCell id="clo_gxIJwNrEaGsPzjzJ-23" value="Relatorio" style="rounded=0;whiteSpace=wrap;html=1;" parent="1" vertex="1">
          <mxGeometry x="944.5899999999999" y="-1350" width="120" height="20" as="geometry" />
        </mxCell>
        <mxCell id="clo_gxIJwNrEaGsPzjzJ-24" value="" style="fontColor=#0066CC;verticalAlign=top;verticalLabelPosition=bottom;labelPosition=center;align=center;html=1;outlineConnect=0;fillColor=#CCCCCC;strokeColor=#6881B3;gradientColor=none;gradientDirection=north;strokeWidth=2;shape=mxgraph.networks.mobile;" parent="1" vertex="1">
          <mxGeometry x="1348.1699999999998" y="-1245" width="150" height="290" as="geometry" />
        </mxCell>
        <mxCell id="clo_gxIJwNrEaGsPzjzJ-25" value="" style="endArrow=classic;html=1;rounded=0;exitX=0.984;exitY=0.458;exitDx=0;exitDy=0;exitPerimeter=0;" parent="1" source="clo_gxIJwNrEaGsPzjzJ-23" target="clo_gxIJwNrEaGsPzjzJ-24" edge="1">
          <mxGeometry width="50" height="50" relative="1" as="geometry">
            <mxPoint x="990" y="-1150" as="sourcePoint" />
            <mxPoint x="1246.5" y="-1320" as="targetPoint" />
          </mxGeometry>
        </mxCell>
        <mxCell id="clo_gxIJwNrEaGsPzjzJ-26" value="Relatorio" style="rounded=0;whiteSpace=wrap;html=1;" parent="1" vertex="1">
          <mxGeometry x="1363.17" y="-1210" width="120" height="20" as="geometry" />
        </mxCell>
        <mxCell id="clo_gxIJwNrEaGsPzjzJ-27" value="Progresso de tarefas" style="text;html=1;strokeColor=none;fillColor=none;align=center;verticalAlign=middle;whiteSpace=wrap;rounded=0;" parent="1" vertex="1">
          <mxGeometry x="1359.3300000000002" y="-1085" width="130" height="30" as="geometry" />
        </mxCell>
        <mxCell id="clo_gxIJwNrEaGsPzjzJ-28" value="" style="verticalLabelPosition=bottom;verticalAlign=top;html=1;shape=mxgraph.basic.donut;dx=10;strokeColor=none;fillColor=#10739E;fontSize=10;align=center;fillOpacity=20;" parent="1" vertex="1">
          <mxGeometry x="1382.7400000000002" y="-1180" width="91.83" height="90" as="geometry" />
        </mxCell>
        <mxCell id="clo_gxIJwNrEaGsPzjzJ-29" value="65%" style="verticalLabelPosition=middle;verticalAlign=middle;html=1;shape=mxgraph.basic.partConcEllipse;startAngle=0;endAngle=0.65;arcWidth=0.2;strokeColor=none;fillColor=#10739E;fontSize=22;fontColor=#10739E;align=center;fontStyle=1;whiteSpace=wrap;" parent="clo_gxIJwNrEaGsPzjzJ-28" vertex="1">
          <mxGeometry width="91.83" height="90" as="geometry" />
        </mxCell>
        <mxCell id="clo_gxIJwNrEaGsPzjzJ-30" value="" style="endArrow=classic;html=1;rounded=0;" parent="1" source="clo_gxIJwNrEaGsPzjzJ-22" target="clo_gxIJwNrEaGsPzjzJ-32" edge="1">
          <mxGeometry width="50" height="50" relative="1" as="geometry">
            <mxPoint x="984" y="-1141" as="sourcePoint" />
            <mxPoint x="1090" y="-1350" as="targetPoint" />
          </mxGeometry>
        </mxCell>
        <mxCell id="clo_gxIJwNrEaGsPzjzJ-32" value="" style="fontColor=#0066CC;verticalAlign=top;verticalLabelPosition=bottom;labelPosition=center;align=center;html=1;outlineConnect=0;fillColor=#CCCCCC;strokeColor=#6881B3;gradientColor=none;gradientDirection=north;strokeWidth=2;shape=mxgraph.networks.mobile;" parent="1" vertex="1">
          <mxGeometry x="1213.1699999999998" y="-1610" width="150" height="290" as="geometry" />
        </mxCell>
        <mxCell id="clo_gxIJwNrEaGsPzjzJ-33" value="Alterar Nome" style="rounded=0;whiteSpace=wrap;html=1;" parent="1" vertex="1">
          <mxGeometry x="1230" y="-1530" width="120" height="20" as="geometry" />
        </mxCell>
        <mxCell id="clo_gxIJwNrEaGsPzjzJ-34" value="Alterar Password" style="rounded=0;whiteSpace=wrap;html=1;" parent="1" vertex="1">
          <mxGeometry x="1228.17" y="-1490" width="120" height="20" as="geometry" />
        </mxCell>
        <mxCell id="clo_gxIJwNrEaGsPzjzJ-36" value="" style="endArrow=classic;html=1;rounded=0;exitX=0.996;exitY=0.445;exitDx=0;exitDy=0;exitPerimeter=0;" parent="1" source="clo_gxIJwNrEaGsPzjzJ-33" target="clo_gxIJwNrEaGsPzjzJ-38" edge="1">
          <mxGeometry width="50" height="50" relative="1" as="geometry">
            <mxPoint x="1455.67" y="-1362" as="sourcePoint" />
            <mxPoint x="1630" y="-1560" as="targetPoint" />
          </mxGeometry>
        </mxCell>
        <mxCell id="clo_gxIJwNrEaGsPzjzJ-37" value="" style="endArrow=classic;html=1;rounded=0;" parent="1" source="clo_gxIJwNrEaGsPzjzJ-34" target="clo_gxIJwNrEaGsPzjzJ-39" edge="1">
          <mxGeometry width="50" height="50" relative="1" as="geometry">
            <mxPoint x="1363.17" y="-1481" as="sourcePoint" />
            <mxPoint x="1600" y="-1360" as="targetPoint" />
          </mxGeometry>
        </mxCell>
        <mxCell id="clo_gxIJwNrEaGsPzjzJ-38" value="" style="fontColor=#0066CC;verticalAlign=top;verticalLabelPosition=bottom;labelPosition=center;align=center;html=1;outlineConnect=0;fillColor=#CCCCCC;strokeColor=#6881B3;gradientColor=none;gradientDirection=north;strokeWidth=2;shape=mxgraph.networks.mobile;" parent="1" vertex="1">
          <mxGeometry x="1659.9999999999998" y="-1760" width="150" height="290" as="geometry" />
        </mxCell>
        <mxCell id="clo_gxIJwNrEaGsPzjzJ-39" value="" style="fontColor=#0066CC;verticalAlign=top;verticalLabelPosition=bottom;labelPosition=center;align=center;html=1;outlineConnect=0;fillColor=#CCCCCC;strokeColor=#6881B3;gradientColor=none;gradientDirection=north;strokeWidth=2;shape=mxgraph.networks.mobile;" parent="1" vertex="1">
          <mxGeometry x="1879.9999999999998" y="-1490" width="150" height="290" as="geometry" />
        </mxCell>
        <mxCell id="clo_gxIJwNrEaGsPzjzJ-42" value="Guardar" style="rounded=1;whiteSpace=wrap;html=1;" parent="1" vertex="1">
          <mxGeometry x="1946.25" y="-1260" width="70" height="20" as="geometry" />
        </mxCell>
        <mxCell id="clo_gxIJwNrEaGsPzjzJ-43" value="Guardar" style="rounded=1;whiteSpace=wrap;html=1;" parent="1" vertex="1">
          <mxGeometry x="1724.33" y="-1540" width="70" height="20" as="geometry" />
        </mxCell>
        <mxCell id="clo_gxIJwNrEaGsPzjzJ-44" value="Password Antiga" style="rounded=0;whiteSpace=wrap;html=1;" parent="1" vertex="1">
          <mxGeometry x="1895" y="-1400" width="120" height="20" as="geometry" />
        </mxCell>
        <mxCell id="clo_gxIJwNrEaGsPzjzJ-45" value="Password Nova" style="rounded=0;whiteSpace=wrap;html=1;" parent="1" vertex="1">
          <mxGeometry x="1895" y="-1360" width="120" height="20" as="geometry" />
        </mxCell>
        <mxCell id="clo_gxIJwNrEaGsPzjzJ-46" value="Nome" style="rounded=0;whiteSpace=wrap;html=1;" parent="1" vertex="1">
          <mxGeometry x="1676" y="-1660" width="120" height="20" as="geometry" />
        </mxCell>
        <mxCell id="clo_gxIJwNrEaGsPzjzJ-52" value="Data" style="rounded=1;whiteSpace=wrap;html=1;" parent="1" vertex="1">
          <mxGeometry x="1400" y="-560" width="118.51" height="20" as="geometry" />
        </mxCell>
        <mxCell id="clo_gxIJwNrEaGsPzjzJ-53" value="Hora" style="rounded=1;whiteSpace=wrap;html=1;" parent="1" vertex="1">
          <mxGeometry x="1400" y="-535" width="118.51" height="20" as="geometry" />
        </mxCell>
        <mxCell id="clo_gxIJwNrEaGsPzjzJ-54" value="Hora" style="rounded=1;whiteSpace=wrap;html=1;" parent="1" vertex="1">
          <mxGeometry x="1422.84" y="-227.5" width="80" height="20" as="geometry" />
        </mxCell>
        <mxCell id="clo_gxIJwNrEaGsPzjzJ-55" value="Data" style="rounded=1;whiteSpace=wrap;html=1;" parent="1" vertex="1">
          <mxGeometry x="1422.84" y="-255" width="80" height="20" as="geometry" />
        </mxCell>
        <mxCell id="clo_gxIJwNrEaGsPzjzJ-63" value="Alterar Curso" style="rounded=0;whiteSpace=wrap;html=1;" parent="1" vertex="1">
          <mxGeometry x="1230" y="-1450" width="120" height="20" as="geometry" />
        </mxCell>
        <mxCell id="clo_gxIJwNrEaGsPzjzJ-64" value="Encerrar evento" style="rounded=1;whiteSpace=wrap;html=1;" parent="1" vertex="1">
          <mxGeometry x="1403.18" y="-80" width="120" height="20" as="geometry" />
        </mxCell>
        <mxCell id="clo_gxIJwNrEaGsPzjzJ-65" value="" style="endArrow=classic;html=1;rounded=0;exitX=0.874;exitY=1.071;exitDx=0;exitDy=0;exitPerimeter=0;" parent="1" source="clo_gxIJwNrEaGsPzjzJ-64" target="clo_gxIJwNrEaGsPzjzJ-66" edge="1">
          <mxGeometry width="50" height="50" relative="1" as="geometry">
            <mxPoint x="1583.83" y="-43" as="sourcePoint" />
            <mxPoint x="1630" y="40" as="targetPoint" />
          </mxGeometry>
        </mxCell>
        <mxCell id="clo_gxIJwNrEaGsPzjzJ-66" value="Apenas visto pelo criador do evento" style="text;html=1;strokeColor=#56517e;fillColor=#d0cee2;align=center;verticalAlign=middle;whiteSpace=wrap;rounded=0;rotation=0;" parent="1" vertex="1">
          <mxGeometry x="1610" y="61" width="90" height="50" as="geometry" />
        </mxCell>
        <mxCell id="clo_gxIJwNrEaGsPzjzJ-67" value="" style="endArrow=classic;html=1;rounded=0;" parent="1" target="clo_gxIJwNrEaGsPzjzJ-68" edge="1">
          <mxGeometry width="50" height="50" relative="1" as="geometry">
            <mxPoint x="1317" y="-1430" as="sourcePoint" />
            <mxPoint x="1653" y="-1254" as="targetPoint" />
            <Array as="points" />
          </mxGeometry>
        </mxCell>
        <mxCell id="clo_gxIJwNrEaGsPzjzJ-68" value="" style="fontColor=#0066CC;verticalAlign=top;verticalLabelPosition=bottom;labelPosition=center;align=center;html=1;outlineConnect=0;fillColor=#CCCCCC;strokeColor=#6881B3;gradientColor=none;gradientDirection=north;strokeWidth=2;shape=mxgraph.networks.mobile;" parent="1" vertex="1">
          <mxGeometry x="1660.9999999999998" y="-1270" width="150" height="290" as="geometry" />
        </mxCell>
        <mxCell id="clo_gxIJwNrEaGsPzjzJ-69" value="Nome" style="rounded=0;whiteSpace=wrap;html=1;" parent="1" vertex="1">
          <mxGeometry x="1676" y="-1180" width="120" height="20" as="geometry" />
        </mxCell>
        <mxCell id="clo_gxIJwNrEaGsPzjzJ-70" value="Guardar" style="rounded=1;whiteSpace=wrap;html=1;" parent="1" vertex="1">
          <mxGeometry x="1726" y="-1040" width="70" height="20" as="geometry" />
        </mxCell>
        <mxCell id="clo_gxIJwNrEaGsPzjzJ-71" value="" style="whiteSpace=wrap;html=1;aspect=fixed;" parent="1" vertex="1">
          <mxGeometry x="617" y="-1450" width="10" height="10" as="geometry" />
        </mxCell>
        <mxCell id="clo_gxIJwNrEaGsPzjzJ-72" value="Descrição" style="rounded=1;whiteSpace=wrap;html=1;" parent="1" vertex="1">
          <mxGeometry x="793.42" y="700" width="116.58" height="30" as="geometry" />
        </mxCell>
        <mxCell id="clo_gxIJwNrEaGsPzjzJ-74" value="Professor" style="rounded=1;whiteSpace=wrap;html=1;" parent="1" vertex="1">
          <mxGeometry x="1255.33" y="106" width="120" height="20" as="geometry" />
        </mxCell>
        <mxCell id="clo_gxIJwNrEaGsPzjzJ-81" value="" style="whiteSpace=wrap;html=1;aspect=fixed;" parent="1" vertex="1">
          <mxGeometry x="550.0000000000001" y="347.5" width="35" height="35" as="geometry" />
        </mxCell>
        <mxCell id="clo_gxIJwNrEaGsPzjzJ-82" value="" style="line;strokeWidth=2;direction=south;html=1;" parent="1" vertex="1">
          <mxGeometry x="562.5000000000001" y="350" width="10" height="30" as="geometry" />
        </mxCell>
        <mxCell id="clo_gxIJwNrEaGsPzjzJ-83" value="" style="line;strokeWidth=2;html=1;" parent="1" vertex="1">
          <mxGeometry x="552.5000000000001" y="360" width="30" height="10" as="geometry" />
        </mxCell>
        <mxCell id="clo_gxIJwNrEaGsPzjzJ-84" value="" style="whiteSpace=wrap;html=1;aspect=fixed;" parent="1" vertex="1">
          <mxGeometry x="985.6700000000001" y="-55" width="35" height="35" as="geometry" />
        </mxCell>
        <mxCell id="clo_gxIJwNrEaGsPzjzJ-85" value="" style="line;strokeWidth=2;direction=south;html=1;" parent="1" vertex="1">
          <mxGeometry x="998.1700000000001" y="-52.5" width="10" height="30" as="geometry" />
        </mxCell>
        <mxCell id="clo_gxIJwNrEaGsPzjzJ-86" value="" style="line;strokeWidth=2;html=1;" parent="1" vertex="1">
          <mxGeometry x="988.1700000000001" y="-42.5" width="30" height="10" as="geometry" />
        </mxCell>
        <mxCell id="clo_gxIJwNrEaGsPzjzJ-87" value="" style="fontColor=#0066CC;verticalAlign=top;verticalLabelPosition=bottom;labelPosition=center;align=center;html=1;outlineConnect=0;fillColor=#CCCCCC;strokeColor=#6881B3;gradientColor=none;gradientDirection=north;strokeWidth=2;shape=mxgraph.networks.mobile;" parent="1" vertex="1">
          <mxGeometry x="1750" y="-657.5" width="150" height="290" as="geometry" />
        </mxCell>
        <mxCell id="clo_gxIJwNrEaGsPzjzJ-88" value="" style="verticalLabelPosition=bottom;verticalAlign=top;html=1;shadow=0;dashed=0;strokeWidth=1;shape=mxgraph.android.contact_badge_pressed;sketch=0;" parent="1" vertex="1">
          <mxGeometry x="1774" y="-590" width="40" height="40" as="geometry" />
        </mxCell>
        <mxCell id="clo_gxIJwNrEaGsPzjzJ-89" value="" style="verticalLabelPosition=bottom;verticalAlign=top;html=1;shadow=0;dashed=0;strokeWidth=1;shape=mxgraph.android.contact_badge_pressed;sketch=0;" parent="1" vertex="1">
          <mxGeometry x="1774" y="-500" width="40" height="40" as="geometry" />
        </mxCell>
        <mxCell id="clo_gxIJwNrEaGsPzjzJ-90" value="Pessoa B" style="text;html=1;strokeColor=none;fillColor=none;align=center;verticalAlign=middle;whiteSpace=wrap;rounded=0;" parent="1" vertex="1">
          <mxGeometry x="1824" y="-534" width="60" height="30" as="geometry" />
        </mxCell>
        <mxCell id="clo_gxIJwNrEaGsPzjzJ-91" value="Pessoa C" style="text;html=1;strokeColor=none;fillColor=none;align=center;verticalAlign=middle;whiteSpace=wrap;rounded=0;" parent="1" vertex="1">
          <mxGeometry x="1824" y="-490" width="60" height="30" as="geometry" />
        </mxCell>
        <mxCell id="clo_gxIJwNrEaGsPzjzJ-92" value="" style="verticalLabelPosition=bottom;verticalAlign=top;html=1;shadow=0;dashed=0;strokeWidth=1;shape=mxgraph.android.contact_badge_pressed;sketch=0;" parent="1" vertex="1">
          <mxGeometry x="1774" y="-545" width="40" height="40" as="geometry" />
        </mxCell>
        <mxCell id="clo_gxIJwNrEaGsPzjzJ-93" value="Pessoa A" style="text;html=1;strokeColor=none;fillColor=none;align=center;verticalAlign=middle;whiteSpace=wrap;rounded=0;" parent="1" vertex="1">
          <mxGeometry x="1821.5" y="-582.5" width="60" height="30" as="geometry" />
        </mxCell>
        <mxCell id="clo_gxIJwNrEaGsPzjzJ-95" value="Caso clicar em adicionar participantes" style="text;html=1;strokeColor=#56517e;fillColor=#d0cee2;align=center;verticalAlign=middle;whiteSpace=wrap;rounded=0;rotation=15;" parent="1" vertex="1">
          <mxGeometry x="1610" y="-515" width="90" height="50" as="geometry" />
        </mxCell>
        <mxCell id="clo_gxIJwNrEaGsPzjzJ-96" value="" style="endArrow=classic;html=1;rounded=0;exitX=0.986;exitY=0.229;exitDx=0;exitDy=0;exitPerimeter=0;" parent="1" source="Rh49TcZlt0-jSSoLgnau-18" edge="1">
          <mxGeometry width="50" height="50" relative="1" as="geometry">
            <mxPoint x="1535" y="-130.5" as="sourcePoint" />
            <mxPoint x="1760" y="-133.5" as="targetPoint" />
            <Array as="points" />
          </mxGeometry>
        </mxCell>
        <mxCell id="m-_DFbzXISbO1GzNLeAH-102" value="" style="fontColor=#0066CC;verticalAlign=top;verticalLabelPosition=bottom;labelPosition=center;align=center;html=1;outlineConnect=0;fillColor=#CCCCCC;strokeColor=#6881B3;gradientColor=none;gradientDirection=north;strokeWidth=2;shape=mxgraph.networks.mobile;" parent="1" vertex="1">
          <mxGeometry x="752.67" y="116" width="201.5" height="340" as="geometry" />
        </mxCell>
        <mxCell id="m-_DFbzXISbO1GzNLeAH-124" value="Horário&amp;nbsp;" style="shape=table;childLayout=tableLayout;startSize=40;collapsible=0;recursiveResize=0;expand=0;fontSize=16;rounded=1;sketch=1;fillWeight=4;hachureGap=8;hachureAngle=45;strokeColor=#10739e;strokeWidth=2;align=center;verticalAlign=middle;fontFamily=Helvetica;fillColor=#b1ddf0;html=1;" parent="1" vertex="1">
          <mxGeometry x="769.8400000000001" y="175" width="171.25" height="180" as="geometry" />
        </mxCell>
        <mxCell id="m-_DFbzXISbO1GzNLeAH-125" value="Horas&amp;nbsp;" style="shape=tableRow;horizontal=0;swimlaneHead=0;swimlaneBody=0;top=0;left=0;strokeColor=inherit;bottom=0;right=0;dropTarget=0;fontStyle=0;fillColor=none;points=[[0,0.5],[1,0.5]];portConstraint=eastwest;startSize=40;collapsible=0;recursiveResize=0;expand=0;fontSize=16;rounded=1;sketch=1;fillWeight=4;hachureGap=8;hachureAngle=45;strokeWidth=2;align=right;verticalAlign=middle;fontFamily=Helvetica;fontColor=default;html=1;" parent="m-_DFbzXISbO1GzNLeAH-124" vertex="1">
          <mxGeometry y="40" width="171.25" height="47" as="geometry" />
        </mxCell>
        <mxCell id="m-_DFbzXISbO1GzNLeAH-126" value="&lt;font style=&quot;font-size: 11px;&quot;&gt;Segunda&lt;/font&gt;" style="swimlane;swimlaneHead=0;swimlaneBody=0;fontStyle=0;strokeColor=inherit;connectable=0;fillColor=none;startSize=55;collapsible=0;recursiveResize=0;expand=0;fontSize=16;rounded=1;sketch=1;fillWeight=4;hachureGap=8;hachureAngle=45;strokeWidth=2;align=center;verticalAlign=middle;fontFamily=Helvetica;fontColor=default;html=1;" parent="m-_DFbzXISbO1GzNLeAH-125" vertex="1">
          <mxGeometry x="40" width="43" height="47" as="geometry">
            <mxRectangle width="43" height="47" as="alternateBounds" />
          </mxGeometry>
        </mxCell>
        <mxCell id="m-_DFbzXISbO1GzNLeAH-127" value="&lt;font style=&quot;font-size: 11px;&quot;&gt;Terça&lt;/font&gt;" style="swimlane;swimlaneHead=0;swimlaneBody=0;fontStyle=0;strokeColor=inherit;connectable=0;fillColor=none;startSize=55;collapsible=0;recursiveResize=0;expand=0;fontSize=16;rounded=1;sketch=1;fillWeight=4;hachureGap=8;hachureAngle=45;strokeWidth=2;align=center;verticalAlign=middle;fontFamily=Helvetica;fontColor=default;html=1;" parent="m-_DFbzXISbO1GzNLeAH-125" vertex="1">
          <mxGeometry x="83" width="46" height="47" as="geometry">
            <mxRectangle width="46" height="47" as="alternateBounds" />
          </mxGeometry>
        </mxCell>
        <mxCell id="m-_DFbzXISbO1GzNLeAH-128" value="&lt;font style=&quot;font-size: 11px;&quot;&gt;Quarta&lt;/font&gt;" style="swimlane;swimlaneHead=0;swimlaneBody=0;fontStyle=0;strokeColor=inherit;connectable=0;fillColor=none;startSize=55;collapsible=0;recursiveResize=0;expand=0;fontSize=16;rounded=1;sketch=1;fillWeight=4;hachureGap=8;hachureAngle=45;strokeWidth=2;align=center;verticalAlign=middle;fontFamily=Helvetica;fontColor=default;html=1;" parent="m-_DFbzXISbO1GzNLeAH-125" vertex="1">
          <mxGeometry x="129" width="42" height="47" as="geometry">
            <mxRectangle width="42" height="47" as="alternateBounds" />
          </mxGeometry>
        </mxCell>
        <mxCell id="m-_DFbzXISbO1GzNLeAH-129" value="&lt;font style=&quot;font-size: 13px;&quot;&gt;09 - 10hr&lt;/font&gt;" style="shape=tableRow;horizontal=0;swimlaneHead=0;swimlaneBody=0;top=0;left=0;strokeColor=inherit;bottom=0;right=0;dropTarget=0;fontStyle=0;fillColor=none;points=[[0,0.5],[1,0.5]];portConstraint=eastwest;startSize=40;collapsible=0;recursiveResize=0;expand=0;fontSize=16;rounded=1;sketch=1;fillWeight=4;hachureGap=8;hachureAngle=45;strokeWidth=2;align=center;verticalAlign=middle;fontFamily=Helvetica;fontColor=default;html=1;" parent="m-_DFbzXISbO1GzNLeAH-124" vertex="1">
          <mxGeometry y="87" width="171.25" height="45" as="geometry" />
        </mxCell>
        <mxCell id="m-_DFbzXISbO1GzNLeAH-130" value="" style="swimlane;swimlaneHead=0;swimlaneBody=0;fontStyle=0;connectable=0;strokeColor=inherit;fillColor=none;startSize=0;collapsible=0;recursiveResize=0;expand=0;fontSize=16;rounded=1;sketch=1;fillWeight=4;hachureGap=8;hachureAngle=45;strokeWidth=2;align=center;verticalAlign=middle;fontFamily=Helvetica;fontColor=default;html=1;" parent="m-_DFbzXISbO1GzNLeAH-129" vertex="1">
          <mxGeometry x="40" width="43" height="45" as="geometry">
            <mxRectangle width="43" height="45" as="alternateBounds" />
          </mxGeometry>
        </mxCell>
        <mxCell id="m-_DFbzXISbO1GzNLeAH-131" value="" style="swimlane;swimlaneHead=0;swimlaneBody=0;fontStyle=0;connectable=0;strokeColor=inherit;fillColor=none;startSize=0;collapsible=0;recursiveResize=0;expand=0;fontSize=16;rounded=1;sketch=1;fillWeight=4;hachureGap=8;hachureAngle=45;strokeWidth=2;align=center;verticalAlign=middle;fontFamily=Helvetica;fontColor=default;html=1;" parent="m-_DFbzXISbO1GzNLeAH-129" vertex="1">
          <mxGeometry x="83" width="46" height="45" as="geometry">
            <mxRectangle width="46" height="45" as="alternateBounds" />
          </mxGeometry>
        </mxCell>
        <mxCell id="m-_DFbzXISbO1GzNLeAH-132" value="" style="swimlane;swimlaneHead=0;swimlaneBody=0;fontStyle=0;connectable=0;strokeColor=inherit;fillColor=none;startSize=0;collapsible=0;recursiveResize=0;expand=0;fontSize=16;rounded=1;sketch=1;fillWeight=4;hachureGap=8;hachureAngle=45;strokeWidth=2;align=center;verticalAlign=middle;fontFamily=Helvetica;fontColor=default;html=1;" parent="m-_DFbzXISbO1GzNLeAH-129" vertex="1">
          <mxGeometry x="129" width="42" height="45" as="geometry">
            <mxRectangle width="42" height="45" as="alternateBounds" />
          </mxGeometry>
        </mxCell>
        <mxCell id="m-_DFbzXISbO1GzNLeAH-133" value="&lt;span style=&quot;font-size: 13px;&quot;&gt;10 - 11hr&lt;/span&gt;" style="shape=tableRow;horizontal=0;swimlaneHead=0;swimlaneBody=0;top=0;left=0;strokeColor=inherit;bottom=0;right=0;dropTarget=0;fontStyle=0;fillColor=none;points=[[0,0.5],[1,0.5]];portConstraint=eastwest;startSize=40;collapsible=0;recursiveResize=0;expand=0;fontSize=16;rounded=1;sketch=1;fillWeight=4;hachureGap=8;hachureAngle=45;strokeWidth=2;align=center;verticalAlign=middle;fontFamily=Helvetica;fontColor=default;html=1;" parent="m-_DFbzXISbO1GzNLeAH-124" vertex="1">
          <mxGeometry y="132" width="171.25" height="48" as="geometry" />
        </mxCell>
        <mxCell id="m-_DFbzXISbO1GzNLeAH-134" value="" style="swimlane;swimlaneHead=0;swimlaneBody=0;fontStyle=0;connectable=0;strokeColor=inherit;fillColor=none;startSize=0;collapsible=0;recursiveResize=0;expand=0;fontSize=16;rounded=1;sketch=1;fillWeight=4;hachureGap=8;hachureAngle=45;strokeWidth=2;align=center;verticalAlign=middle;fontFamily=Helvetica;fontColor=default;html=1;" parent="m-_DFbzXISbO1GzNLeAH-133" vertex="1">
          <mxGeometry x="40" width="43" height="48" as="geometry">
            <mxRectangle width="43" height="48" as="alternateBounds" />
          </mxGeometry>
        </mxCell>
        <mxCell id="m-_DFbzXISbO1GzNLeAH-135" value="" style="swimlane;swimlaneHead=0;swimlaneBody=0;fontStyle=0;connectable=0;strokeColor=inherit;fillColor=none;startSize=0;collapsible=0;recursiveResize=0;expand=0;fontSize=16;rounded=1;sketch=1;fillWeight=4;hachureGap=8;hachureAngle=45;strokeWidth=2;align=center;verticalAlign=middle;fontFamily=Helvetica;fontColor=default;html=1;" parent="m-_DFbzXISbO1GzNLeAH-133" vertex="1">
          <mxGeometry x="83" width="46" height="48" as="geometry">
            <mxRectangle width="46" height="48" as="alternateBounds" />
          </mxGeometry>
        </mxCell>
        <mxCell id="m-_DFbzXISbO1GzNLeAH-136" value="" style="swimlane;swimlaneHead=0;swimlaneBody=0;fontStyle=0;connectable=0;strokeColor=inherit;fillColor=none;startSize=0;collapsible=0;recursiveResize=0;expand=0;fontSize=16;rounded=1;sketch=1;fillWeight=4;hachureGap=8;hachureAngle=45;strokeWidth=2;align=center;verticalAlign=middle;fontFamily=Helvetica;fontColor=default;html=1;" parent="m-_DFbzXISbO1GzNLeAH-133" vertex="1">
          <mxGeometry x="129" width="42" height="48" as="geometry">
            <mxRectangle width="42" height="48" as="alternateBounds" />
          </mxGeometry>
        </mxCell>
        <mxCell id="clo_gxIJwNrEaGsPzjzJ-78" value="" style="whiteSpace=wrap;html=1;aspect=fixed;" parent="1" vertex="1">
          <mxGeometry x="901.9100000000001" y="382.5" width="35" height="35" as="geometry" />
        </mxCell>
        <mxCell id="clo_gxIJwNrEaGsPzjzJ-79" value="" style="line;strokeWidth=2;direction=south;html=1;" parent="1" vertex="1">
          <mxGeometry x="914.4100000000001" y="385" width="10" height="30" as="geometry" />
        </mxCell>
        <mxCell id="clo_gxIJwNrEaGsPzjzJ-80" value="" style="line;strokeWidth=2;html=1;" parent="1" vertex="1">
          <mxGeometry x="904.41" y="396.5" width="30" height="8.5" as="geometry" />
        </mxCell>
        <mxCell id="clo_gxIJwNrEaGsPzjzJ-97" value="UC" style="rounded=1;whiteSpace=wrap;html=1;" parent="1" vertex="1">
          <mxGeometry x="788.1700000000001" y="590" width="120" height="20" as="geometry" />
        </mxCell>
        <mxCell id="hIlGaYzakrmFdpd4rHQf-1" value="Hora_Fim" style="rounded=1;whiteSpace=wrap;html=1;" parent="1" vertex="1">
          <mxGeometry x="791.5799999999999" y="672" width="120" height="20" as="geometry" />
        </mxCell>
        <mxCell id="38bksFKyxm7Crh1W8dBd-1" value="Descrição" style="rounded=1;whiteSpace=wrap;html=1;" parent="1" vertex="1">
          <mxGeometry x="1255.3300000000004" y="171" width="120" height="40" as="geometry" />
        </mxCell>
        <mxCell id="7omgldwNttoHIKrHo_71-5" value="Drop Down Button" style="swimlane;whiteSpace=wrap;html=1;" parent="1" vertex="1">
          <mxGeometry x="1183.17" y="437.5" width="200" height="200" as="geometry" />
        </mxCell>
        <mxCell id="7omgldwNttoHIKrHo_71-6" value="Curso" style="text;html=1;strokeColor=none;fillColor=none;align=center;verticalAlign=middle;whiteSpace=wrap;rounded=0;" parent="7omgldwNttoHIKrHo_71-5" vertex="1">
          <mxGeometry x="15.239999999999924" y="42.5" width="60" height="30" as="geometry" />
        </mxCell>
        <mxCell id="7omgldwNttoHIKrHo_71-7" value="UC" style="text;html=1;strokeColor=none;fillColor=none;align=center;verticalAlign=middle;whiteSpace=wrap;rounded=0;" parent="7omgldwNttoHIKrHo_71-5" vertex="1">
          <mxGeometry x="15.239999999999927" y="82.5" width="60" height="30" as="geometry" />
        </mxCell>
        <mxCell id="uP5w9w6FcFk_gWkP2hef-1" value="" style="endArrow=classic;html=1;rounded=0;" parent="1" source="PIecZ1-pUtgp4aDP-7Yr-52" target="qVZnhwR5oblb5ogb_L6s-7" edge="1">
          <mxGeometry width="50" height="50" relative="1" as="geometry">
            <mxPoint x="1213" y="-625" as="sourcePoint" />
            <mxPoint x="1385" y="-308" as="targetPoint" />
          </mxGeometry>
        </mxCell>
        <mxCell id="qVZnhwR5oblb5ogb_L6s-7" value="Caso clicar em clique para ver" style="text;html=1;strokeColor=#56517e;fillColor=#d0cee2;align=center;verticalAlign=middle;whiteSpace=wrap;rounded=0;rotation=-15;" parent="1" vertex="1">
          <mxGeometry x="1222.01" y="-500" width="90" height="40" as="geometry" />
        </mxCell>
      </root>
    </mxGraphModel>
  </diagram>
</mxfile>
